<svg width="20" height="20" viewBox="0 0 20 20" fill="none" xmlns="http://www.w3.org/2000/svg">
<path d="M17.5625 11.8126L8.1875 2.43761C6.625 0.812615 4.0625 0.812615 2.4375 2.37511C0.8125 3.93761 0.8125 6.56261 2.4375 8.12511L2.5 8.18762L4.25 10.0001L5.125 9.12512L3.3125 7.31261C2.25 6.25011 2.25 4.43761 3.3125 3.37511C4.375 2.31261 6.1875 2.25011 7.25 3.31261L7.3125 3.37511L16.625 12.6876C17.75 13.7501 17.75 15.5626 16.6875 16.6251C15.625 17.7501 13.8125 17.7501 12.75 16.6876L12.6875 16.6251L8.0625 12.0001C7.4375 11.3751 7.5 10.3751 8.0625 9.81261C8.6875 9.25012 9.625 9.25012 10.25 9.81261L12.8125 12.3751L13.6875 11.5001L11.0625 8.87511C9.9375 7.81261 8.1875 7.87511 7.125 9.00011C6.125 10.0626 6.125 11.7501 7.125 12.8751L11.8125 17.5626C13.375 19.1876 15.9375 19.1876 17.5625 17.6251C19.1875 16.0626 19.1875 13.4376 17.5625 11.8126Z" fill="#DDDDDD"/>
</svg>
