<svg width="18" height="18" viewBox="0 0 18 18" fill="none" xmlns="http://www.w3.org/2000/svg">
<path d="M16.6267 11.6283C15.6362 12.0416 14.5733 12.2535 13.5 12.2517C11.3451 12.2517 9.27849 11.3956 7.75476 9.87191C6.23102 8.34818 5.375 6.28155 5.375 4.12667C5.375 3.01833 5.59667 1.9625 5.99833 1C4.5177 1.61732 3.25293 2.65912 2.36344 3.9941C1.47394 5.32908 0.999534 6.89749 1 8.50167C1 10.6566 1.85602 12.7232 3.37976 14.2469C4.90349 15.7706 6.97012 16.6267 9.125 16.6267C10.7292 16.6271 12.2976 16.1527 13.6326 15.2632C14.9675 14.3737 16.0093 13.109 16.6267 11.6283Z" stroke="#DDDDDD" stroke-width="1.5" stroke-linecap="round" stroke-linejoin="round"/>
</svg>
