<svg width="18" height="18" viewBox="0 0 18 18" fill="none" xmlns="http://www.w3.org/2000/svg">
<path d="M1 10.375H16.4167M6.3 13.5258V14.75C6.3 15.192 6.12441 15.616 5.81185 15.9285C5.49928 16.2411 5.07536 16.4167 4.63333 16.4167H4.13333M11.1167 13.5258V14.75C11.1167 15.192 11.2923 15.616 11.6048 15.9285C11.9174 16.2411 12.3413 16.4167 12.7833 16.4167H13.2833M4.13167 16.4167H13.285M1 3.91667C1 3.14312 1.30729 2.40125 1.85427 1.85427C2.40125 1.30729 3.14312 1 3.91667 1H13.5C14.2735 1 15.0154 1.30729 15.5624 1.85427C16.1094 2.40125 16.4167 3.14312 16.4167 3.91667V10.6092C16.4167 11.3827 16.1094 12.1246 15.5624 12.6716C15.0154 13.2185 14.2735 13.5258 13.5 13.5258H3.91667C3.14312 13.5258 2.40125 13.2185 1.85427 12.6716C1.30729 12.1246 1 11.3827 1 10.6092V3.91667Z" stroke="#DDDDDD" stroke-width="1.5" stroke-linecap="round" stroke-linejoin="round"/>
</svg>
