<svg width="100" height="100" viewBox="0 0 100 100" fill="none" xmlns="http://www.w3.org/2000/svg">
<path d="M77.3829 24.4494C75.1223 19.0519 71.317 14.4428 66.445 11.2014C61.5731 7.95986 55.8519 6.23047 50.0001 6.23047C44.1483 6.23047 38.4271 7.95986 33.5551 11.2014C28.6832 14.4428 24.8779 19.0519 22.6173 24.4494C17.7353 26.6807 13.5972 30.2679 10.6955 34.7838C7.7939 39.2997 6.25086 44.5542 6.25009 49.922C6.21103 64.8439 18.7501 77.7345 33.6485 78.1251C38.2311 78.2356 42.7713 77.2259 46.8751 75.1837V90.6251C46.8751 91.4539 47.2043 92.2488 47.7904 92.8348C48.3764 93.4209 49.1713 93.7501 50.0001 93.7501C50.8289 93.7501 51.6238 93.4209 52.2098 92.8348C52.7959 92.2488 53.1251 91.4539 53.1251 90.6251V75.1837C57.0101 77.1124 61.2877 78.1189 65.6251 78.1251H66.336C81.2501 77.7345 93.7931 64.8439 93.7501 49.922C93.7493 44.5542 92.2063 39.2997 89.3046 34.7838C86.403 30.2679 82.2649 26.6807 77.3829 24.4494ZM66.1915 71.8751C61.5313 71.9965 56.954 70.6281 53.1251 67.9689V51.9533L70.1485 43.4454C70.5158 43.2618 70.8433 43.0076 71.1124 42.6974C71.3814 42.3872 71.5868 42.027 71.7166 41.6374C71.8465 41.2478 71.8983 40.8365 71.8692 40.4269C71.8401 40.0173 71.7306 39.6174 71.547 39.2501C71.3633 38.8828 71.1091 38.5553 70.7989 38.2863C70.4887 38.0172 70.1285 37.8119 69.7389 37.682C69.3494 37.5522 68.938 37.5003 68.5284 37.5294C68.1188 37.5585 67.7189 37.668 67.3517 37.8517L53.1251 44.9454V34.3751C53.1251 33.5463 52.7959 32.7515 52.2098 32.1654C51.6238 31.5794 50.8289 31.2501 50.0001 31.2501C49.1713 31.2501 48.3764 31.5794 47.7904 32.1654C47.2043 32.7515 46.8751 33.5463 46.8751 34.3751V54.3204L32.6485 47.2033C31.9068 46.8324 31.048 46.7713 30.2612 47.0336C29.4745 47.2959 28.8241 47.8599 28.4532 48.6017C28.0823 49.3435 28.0213 50.2022 28.2836 50.989C28.5458 51.7757 29.1099 52.4261 29.8517 52.797L46.8751 61.3048V67.9454C43.0472 70.6066 38.4691 71.9753 33.8087 71.8517C22.2267 71.5743 12.4688 61.5314 12.5001 49.9376C12.4971 45.5774 13.8026 41.3166 16.2477 37.7064C18.6928 34.0963 22.1649 31.3029 26.2149 29.6876C26.6212 29.5245 26.9887 29.2778 27.2935 28.9635C27.5984 28.6493 27.8338 28.2745 27.9845 27.8634C29.6328 23.3493 32.629 19.451 36.567 16.6967C40.505 13.9423 45.1945 12.4651 50.0001 12.4651C54.8057 12.4651 59.4952 13.9423 63.4332 16.6967C67.3712 19.451 70.3674 23.3493 72.0157 27.8634C72.1664 28.2745 72.4018 28.6493 72.7067 28.9635C73.0115 29.2778 73.379 29.5245 73.7852 29.6876C77.8346 31.3038 81.3062 34.0974 83.7511 37.7073C86.1961 41.3173 87.502 45.5776 87.5001 49.9376C87.5313 61.5314 77.7735 71.5743 66.1915 71.8751Z" fill="#737374"/>
</svg>
