<svg width="68" height="68" viewBox="0 0 68 68" fill="none" xmlns="http://www.w3.org/2000/svg">
<path d="M34.0967 62.9998C42.1523 62.9998 48.9576 60.1643 54.5127 54.4932C60.0679 48.8221 62.897 41.9716 63.0001 33.9418V4.99984H34.0677C26.0283 5.0965 19.1746 7.92561 13.5067 13.4872C7.83564 19.0423 5.00008 25.8476 5.00008 33.9032C5.00008 41.9587 7.82919 48.8221 13.4874 54.4932C19.1456 60.1643 26.0138 62.9998 34.0919 62.9998M29.3021 51.4482L47.8524 34.8408C48.4582 34.2995 48.6306 33.6631 48.3696 32.9317C48.1118 32.2002 47.5608 31.7539 46.7166 31.5928L32.1972 30.2733L41.0084 18.219C41.1889 17.9387 41.2678 17.6326 41.2452 17.3007C41.2227 16.9688 41.1131 16.674 40.9166 16.4162C40.5944 16.0746 40.2319 15.9199 39.8291 15.9522C39.4263 15.9844 39.059 16.1358 38.7271 16.4065L20.3604 32.951C19.7546 33.4891 19.5661 34.14 19.7949 34.9037C20.0269 35.6641 20.5634 36.1249 21.4044 36.286L35.9237 37.6055L27.1754 49.6598C26.9982 49.9402 26.9241 50.2463 26.9531 50.5782C26.9821 50.9101 27.1126 51.2065 27.3446 51.4675C27.5766 51.7285 27.8762 51.8574 28.2436 51.8542C28.6109 51.8509 28.9637 51.7156 29.3021 51.4482ZM34.0919 67.8332C29.8289 67.8332 25.8124 67.0969 22.0424 65.6243C18.2724 64.1518 14.8907 62.1282 11.8972 59.5537L4.31858 67.1275C4.08014 67.3627 3.80947 67.5399 3.50658 67.6592C3.20691 67.7752 2.89597 67.8332 2.57375 67.8332C1.89064 67.8332 1.31869 67.5996 0.857915 67.1323C0.397138 66.6683 0.166748 66.0916 0.166748 65.402C0.166748 65.0798 0.224747 64.7704 0.340747 64.474C0.459969 64.1808 0.637192 63.9166 0.872414 63.6813L8.44625 56.1027C5.86847 53.1092 3.84491 49.7275 2.37558 45.9575C0.906247 42.1875 0.16997 38.171 0.166748 33.908C0.166748 24.4894 3.46308 16.5112 10.0557 9.97334C16.6484 3.43545 24.6556 0.166504 34.0774 0.166504H67.8334V33.9177C67.8334 43.3427 64.5645 51.3499 58.0266 57.9393C51.4919 64.5352 43.5153 67.8332 34.0967 67.8332" fill="#737374"/>
</svg>
