<svg width="52" height="52" viewBox="0 0 52 52" fill="none" xmlns="http://www.w3.org/2000/svg">
<path fill-rule="evenodd" clip-rule="evenodd" d="M34.0708 47.6668V30.886H39.7041L40.5469 24.347H34.0686V20.1718C34.0686 18.2782 34.5951 16.9868 37.3121 16.9868H40.7744V11.1368C39.0978 10.9567 37.4124 10.8699 35.7261 10.8768C30.7341 10.8768 27.3173 13.9253 27.3173 19.5218V24.347H21.6666V30.886H27.3151V47.6668H6.72525C5.40359 47.6668 4.33325 46.5965 4.33325 45.2748V6.7255C4.33325 5.40383 5.40359 4.3335 6.72525 4.3335H45.2746C46.5963 4.3335 47.6666 5.40383 47.6666 6.7255V45.2748C47.6666 46.5965 46.5963 47.6668 45.2746 47.6668H34.0708Z" fill="#737374"/>
</svg>
