<svg width="44" height="50" viewBox="0 0 44 50" fill="none" xmlns="http://www.w3.org/2000/svg">
<g clip-path="url(#clip0_253_650)">
<path d="M18.9844 20.6738C18.4156 21.0541 17.9273 21.5426 17.5474 22.1116C17.1674 22.6805 16.9032 23.3188 16.7699 23.9898C16.5007 25.345 16.7809 26.7517 17.5488 27.9004C18.3168 29.0491 19.5096 29.8456 20.8648 30.1148C22.22 30.3841 23.6267 30.1039 24.7754 29.3359C25.9241 28.568 26.7206 27.3752 26.9898 26.02C27.2591 24.6647 26.9789 23.258 26.2109 22.1094C25.443 20.9607 24.2502 20.1641 22.895 19.8949C21.5397 19.6257 20.133 19.9059 18.9844 20.6738ZM32.8809 13.9941C32.373 13.4863 31.7578 13.0859 31.084 12.8223C29.3164 12.1289 25.459 12.1582 22.9688 12.1875C22.5684 12.1875 22.1973 12.1973 21.875 12.1973C21.5527 12.1973 21.1719 12.1973 20.7617 12.1875C18.2715 12.1582 14.4336 12.1191 12.666 12.8223C11.9922 13.0859 11.3867 13.4863 10.8691 13.9941C10.3516 14.502 9.96094 15.1172 9.69727 15.791C9.00391 17.5586 9.04297 21.4258 9.0625 23.916C9.0625 24.3164 9.07227 24.6875 9.07227 25C9.07227 25.3125 9.07227 25.6836 9.0625 26.084C9.04297 28.5742 9.00391 32.4414 9.69727 34.209C9.96094 34.8828 10.3613 35.4883 10.8691 36.0059C11.377 36.5234 11.9922 36.9141 12.666 37.1777C14.4336 37.8711 18.291 37.8418 20.7812 37.8125C21.1816 37.8125 21.5527 37.8027 21.875 37.8027C22.1973 37.8027 22.5781 37.8027 22.9883 37.8125C25.4785 37.8418 29.3164 37.8809 31.084 37.1777C31.7578 36.9141 32.3633 36.5137 32.8809 36.0059C33.3984 35.498 33.7891 34.8828 34.0527 34.209C34.7559 32.4512 34.7168 28.6035 34.6875 26.1035C34.6875 25.6934 34.6777 25.3125 34.6777 24.9902C34.6777 24.668 34.6777 24.2969 34.6875 23.877C34.7168 21.3867 34.7559 17.5391 34.0527 15.7715C33.7891 15.0977 33.3887 14.4922 32.8809 13.9746V13.9941ZM26.3281 18.3398C28.0945 19.5209 29.3194 21.3552 29.7333 23.4394C30.1472 25.5235 29.7162 27.6867 28.5352 29.4531C27.3541 31.2195 25.5198 32.4444 23.4356 32.8583C21.3515 33.2722 19.1883 32.8412 17.4219 31.6602C16.5473 31.076 15.7962 30.3253 15.2117 29.4509C14.6272 28.5765 14.2207 27.5956 14.0153 26.5641C13.8099 25.5325 13.8097 24.4707 14.0147 23.4391C14.2196 22.4075 14.6258 21.4264 15.21 20.5518C15.7941 19.6771 16.5448 18.9261 17.4192 18.3416C18.2936 17.7571 19.2745 17.3506 20.3061 17.1452C21.3376 16.9398 22.3994 16.9396 23.431 17.1445C24.4626 17.3495 25.4437 17.7557 26.3184 18.3398H26.3281ZM29.1797 18.2129C28.877 18.0078 28.6328 17.7148 28.4863 17.373C28.3398 17.0312 28.3105 16.6602 28.3789 16.2891C28.4473 15.918 28.6328 15.5957 28.8867 15.332C29.1406 15.0684 29.4824 14.8926 29.8438 14.8242C30.2051 14.7559 30.5859 14.7852 30.9277 14.9316C31.2695 15.0781 31.5625 15.3125 31.7676 15.6152C31.9727 15.918 32.0801 16.2793 32.0801 16.6504C32.0801 16.8945 32.0312 17.1387 31.9434 17.3633C31.8555 17.5879 31.709 17.793 31.543 17.9688C31.377 18.1445 31.1621 18.2812 30.9375 18.3789C30.7129 18.4766 30.4688 18.5254 30.2246 18.5254C29.8535 18.5254 29.4922 18.418 29.1895 18.2129H29.1797ZM43.75 9.375C43.75 5.92773 40.9473 3.125 37.5 3.125H6.25C2.80273 3.125 0 5.92773 0 9.375V40.625C0 44.0723 2.80273 46.875 6.25 46.875H37.5C40.9473 46.875 43.75 44.0723 43.75 40.625V9.375ZM34.8633 37.9883C33.0371 39.8145 30.8203 40.3906 28.3203 40.5176C25.7422 40.6641 18.0078 40.6641 15.4297 40.5176C12.9297 40.3906 10.7129 39.8145 8.88672 37.9883C7.06055 36.1621 6.48437 33.9453 6.36719 31.4453C6.2207 28.8672 6.2207 21.1328 6.36719 18.5547C6.49414 16.0547 7.06055 13.8379 8.88672 12.0117C10.7129 10.1855 12.9395 9.60937 15.4297 9.49219C18.0078 9.3457 25.7422 9.3457 28.3203 9.49219C30.8203 9.61914 33.0371 10.1855 34.8633 12.0117C36.6895 13.8379 37.2656 16.0547 37.3828 18.5547C37.5293 21.123 37.5293 28.8477 37.3828 31.4355C37.2559 33.9355 36.6895 36.1523 34.8633 37.9785V37.9883Z" fill="#737374"/>
</g>
<defs>
<clipPath id="clip0_253_650">
<rect width="43.75" height="50" fill="white"/>
</clipPath>
</defs>
</svg>
