<svg width="17" height="17" viewBox="0 0 17 17" fill="none" xmlns="http://www.w3.org/2000/svg">
<path d="M8.33241 14.1667C8.53652 14.1667 8.73352 14.2416 8.88605 14.3773C9.03858 14.5129 9.13603 14.6998 9.15991 14.9025L9.16574 15V15.8333C9.16551 16.0457 9.08418 16.25 8.93837 16.4045C8.79256 16.5589 8.59328 16.6519 8.38125 16.6643C8.16921 16.6768 7.96043 16.6078 7.79755 16.4714C7.63467 16.3351 7.53 16.1417 7.50491 15.9308L7.49908 15.8333V15C7.49908 14.779 7.58687 14.567 7.74315 14.4107C7.89943 14.2545 8.1114 14.1667 8.33241 14.1667ZM13.5932 12.425L13.6716 12.4942L14.2549 13.0775C14.4044 13.2275 14.4911 13.4287 14.4976 13.6403C14.5041 13.8519 14.4297 14.0581 14.2897 14.2169C14.1497 14.3757 13.9544 14.4753 13.7437 14.4953C13.5329 14.5154 13.3224 14.4545 13.1549 14.325L13.0766 14.2558L12.4932 13.6725C12.3494 13.5289 12.263 13.3378 12.2503 13.135C12.2375 12.9322 12.2993 12.7317 12.424 12.5713C12.5487 12.4109 12.7277 12.3015 12.9274 12.2639C13.1271 12.2262 13.3336 12.2627 13.5082 12.3667L13.5932 12.425ZM4.17158 12.4942C4.31506 12.6377 4.40125 12.8286 4.41398 13.0311C4.42672 13.2336 4.36512 13.4338 4.24074 13.5942L4.17158 13.6725L3.58824 14.2558C3.43828 14.4053 3.23705 14.4921 3.02542 14.4985C2.8138 14.505 2.60765 14.4307 2.44884 14.2906C2.29004 14.1506 2.19049 13.9554 2.17041 13.7446C2.15033 13.5338 2.21123 13.3233 2.34074 13.1558L2.40991 13.0775L2.99324 12.4942C3.14952 12.3379 3.36144 12.2502 3.58241 12.2502C3.80338 12.2502 4.0153 12.3379 4.17158 12.4942ZM1.66574 7.5C1.87814 7.50024 2.08244 7.58157 2.23688 7.72737C2.39133 7.87318 2.48427 8.07246 2.49672 8.2845C2.50917 8.49653 2.44018 8.70532 2.30386 8.86819C2.16753 9.03107 1.97416 9.13575 1.76324 9.16083L1.66574 9.16667H0.83241C0.62001 9.16643 0.415717 9.0851 0.26127 8.93929C0.106823 8.79349 0.013881 8.59421 0.00143336 8.38217C-0.0110142 8.17014 0.0579723 7.96135 0.194298 7.79847C0.330623 7.6356 0.523997 7.53092 0.73491 7.50583L0.83241 7.5H1.66574ZM15.8324 7.5C16.0448 7.50024 16.2491 7.58157 16.4035 7.72737C16.558 7.87318 16.6509 8.07246 16.6634 8.2845C16.6758 8.49653 16.6068 8.70532 16.4705 8.86819C16.3342 9.03107 16.1408 9.13575 15.9299 9.16083L15.8324 9.16667H14.9991C14.7867 9.16643 14.5824 9.0851 14.4279 8.93929C14.2735 8.79349 14.1805 8.59421 14.1681 8.38217C14.1557 8.17014 14.2246 7.96135 14.361 7.79847C14.4973 7.6356 14.6907 7.53092 14.9016 7.50583L14.9991 7.5H15.8324ZM3.50991 2.34167L3.58824 2.41083L4.17158 2.99417C4.32103 3.14413 4.4078 3.34536 4.41427 3.55699C4.42073 3.76861 4.3464 3.97476 4.20637 4.13357C4.06634 4.29237 3.87112 4.39192 3.66035 4.412C3.44958 4.43208 3.23907 4.37118 3.07158 4.24167L2.99324 4.1725L2.40991 3.58917C2.26665 3.44557 2.18069 3.25464 2.16813 3.05219C2.15558 2.84974 2.21729 2.64966 2.34171 2.48946C2.46613 2.32926 2.64471 2.21994 2.84397 2.18199C3.04323 2.14405 3.24949 2.18008 3.42408 2.28333L3.50991 2.34167ZM14.2549 2.41083C14.3984 2.55433 14.4846 2.74524 14.4973 2.94777C14.5101 3.15029 14.4485 3.3505 14.3241 3.51083L14.2549 3.58917L13.6716 4.1725C13.5216 4.32196 13.3204 4.40873 13.1088 4.41519C12.8971 4.42165 12.691 4.34732 12.5322 4.20729C12.3734 4.06726 12.2738 3.87204 12.2537 3.66127C12.2337 3.4505 12.2946 3.23999 12.4241 3.0725L12.4932 2.99417L13.0766 2.41083C13.2329 2.25461 13.4448 2.16684 13.6657 2.16684C13.8867 2.16684 14.0986 2.25461 14.2549 2.41083ZM8.33241 0C8.53652 2.69255e-05 8.73352 0.0749635 8.88605 0.210596C9.03858 0.346229 9.13603 0.533124 9.15991 0.735833L9.16574 0.833333V1.66667C9.16551 1.87907 9.08418 2.08336 8.93837 2.23781C8.79256 2.39225 8.59328 2.4852 8.38125 2.49764C8.16921 2.51009 7.96043 2.4411 7.79755 2.30478C7.63467 2.16845 7.53 1.97508 7.50491 1.76417L7.49908 1.66667V0.833333C7.49908 0.61232 7.58687 0.400358 7.74315 0.244078C7.89943 0.0877973 8.1114 0 8.33241 0ZM8.33241 4.16667C9.14881 4.16662 9.94723 4.40641 10.6285 4.85625C11.3098 5.30609 11.8439 5.94616 12.1645 6.69697C12.4852 7.44777 12.5782 8.27622 12.432 9.07943C12.2858 9.88263 11.9069 10.6252 11.3423 11.2149C10.7777 11.8046 10.0523 12.2154 9.25619 12.3964C8.4601 12.5773 7.62838 12.5204 6.86436 12.2327C6.10033 11.945 5.43765 11.4392 4.95863 10.7781C4.4796 10.117 4.20534 9.32979 4.16991 8.51417L4.16574 8.33333L4.16991 8.1525C4.21651 7.07979 4.67542 6.06648 5.45093 5.32388C6.22644 4.58128 7.25869 4.16673 8.33241 4.16667Z" fill="#DDDDDD"/>
</svg>
