<svg width="44" height="44" viewBox="0 0 44 44" fill="none" xmlns="http://www.w3.org/2000/svg">
<g clip-path="url(#clip0_253_646)">
<path d="M0 0V44H44V0H0ZM10.7905 8.65014C12.5333 8.66976 14.25 9.87206 14.3247 11.9534C14.362 13.8041 12.7491 15.2138 10.7449 15.2566H10.6965C8.97112 15.2367 7.28611 14.0042 7.20801 11.9534C7.23261 10.1232 8.771 8.69356 10.7905 8.65014ZM29.4873 17.3943C31.4033 17.4062 33.2116 17.9746 34.6973 19.4891C36.2411 21.2109 36.7368 23.5851 36.792 25.9988V36.9773H30.4648V26.7454C30.4507 24.8276 29.7938 22.4965 27.2556 22.419C25.768 22.4348 24.719 23.2992 24.0007 24.7446C23.8046 25.2099 23.7764 25.7447 23.7671 26.2781V36.9773H17.4426C17.4668 31.6285 17.5001 26.2801 17.4883 20.9312C17.4883 19.4118 17.4736 18.3887 17.4426 17.8616H23.7671V20.5579C24.3039 19.7944 24.8993 19.0703 25.6979 18.4873C26.7813 17.7142 28.0826 17.4178 29.4873 17.3943ZM7.58131 17.8616H13.9058V36.9773H7.58131V17.8616Z" fill="#737374"/>
</g>
<defs>
<clipPath id="clip0_253_646">
<rect width="44" height="44" fill="white"/>
</clipPath>
</defs>
</svg>
