<svg width="100" height="100" viewBox="0 0 100 100" fill="none" xmlns="http://www.w3.org/2000/svg">
<path d="M16.3734 57.4199C14.12 61.4066 10.0067 68.6866 17.2867 73.5399C19.5734 75.0533 22.14 76.0999 24.8267 76.6199C26.8734 76.9199 26.9801 80.0733 24.5734 79.9999C22.0067 79.8666 9.50672 78.7133 7.50005 69.3333C6.46005 63.8666 7.63338 58.9533 10.86 53.6333L15.5067 45.4133L6.80005 40.4599L30 26.6666V53.3333L21.2934 48.7066L16.3734 57.4199ZM44.6667 13.5599C52.3667 9.37326 56.82 16.4266 59.2734 20.2733L64.6467 28.6933L56.2067 34.0799L80 46.5733L78.6867 19.7333L70.26 25.1133L65.1934 17.1866C61.7134 12.2133 59.1667 8.53993 52.96 6.88659C42.0467 4.79993 35.34 17.4599 35.4067 17.3799C34.3134 19.2933 36.8467 20.9799 38.4134 18.7799C40.1334 16.6466 42.26 14.8733 44.6667 13.5599ZM88.6267 54.8066C88.0401 53.5399 84.9667 53.8666 85.8334 56.5866C86.7067 59.1866 87.0667 61.9199 86.8801 64.6533C86.26 73.3999 77.8934 73.3333 73.3334 73.3333H63.3334V63.3333L40 76.6666L63.2534 90.1666L63.2867 79.9999H73.3334C79.2667 80.0999 84.0001 78.8266 88.0001 75.2466C96.0001 68.1733 88.6267 54.8066 88.6267 54.8066Z" fill="#737374"/>
</svg>
