<svg width="44" height="44" viewBox="0 0 44 44" fill="none" xmlns="http://www.w3.org/2000/svg">
<g clip-path="url(#clip0_253_648)">
<path d="M0 0V44H44V0H0ZM35.2 15.4V16.225C35.2 25.3 28.325 35.475 15.95 35.475C12.1 35.475 8.525 34.375 5.5 32.45H7.15C10.45 32.45 13.2 31.35 15.675 29.425C12.65 29.425 10.175 27.5 9.35 24.75H10.725C11.275 24.75 11.825 24.75 12.375 24.475C9.35 23.925 6.875 21.175 6.875 17.875C7.7 18.425 8.8 18.7 9.9 18.7C7.975 17.6 6.875 15.4 6.875 13.2C6.875 11.825 7.15 10.725 7.7 9.9C11 14.025 16.225 16.5 21.725 16.775C21.725 16.225 21.45 15.675 21.45 15.125C21.45 11.275 24.475 8.25 28.325 8.25C30.25 8.25 31.9 9.075 33.275 10.45C34.925 10.175 36.3 9.625 37.675 8.8C37.125 10.45 36.025 11.825 34.65 12.65C36.025 12.375 37.4 12.1 38.5 11.55C37.675 13.2 36.575 14.3 35.2 15.4Z" fill="#737374"/>
</g>
<defs>
<clipPath id="clip0_253_648">
<rect width="44" height="44" fill="white"/>
</clipPath>
</defs>
</svg>
