<svg width="50" height="50" viewBox="0 0 50 50" fill="none" xmlns="http://www.w3.org/2000/svg">
<path d="M25 0C38.8105 0 50 11.1895 50 25C50 38.8105 38.8105 50 25 50C11.1895 50 0 38.8105 0 25C0 11.1895 11.1895 0 25 0ZM22.0867 14.4758L29.6976 21.7742H11.2903C9.9496 21.7742 8.87097 22.8528 8.87097 24.1935V25.8065C8.87097 27.1472 9.9496 28.2258 11.2903 28.2258H29.6976L22.0867 35.5242C21.1089 36.4617 21.0887 38.0242 22.0464 38.9819L23.1552 40.0806C24.1028 41.0282 25.6351 41.0282 26.5726 40.0806L39.9496 26.7137C40.8972 25.7661 40.8972 24.2339 39.9496 23.2964L26.5726 9.90927C25.625 8.96169 24.0927 8.96169 23.1552 9.90927L22.0464 11.0081C21.0887 11.9758 21.1089 13.5383 22.0867 14.4758Z" fill="#BB8856"/>
</svg>
