<svg width="55" height="55" viewBox="0 0 55 55" fill="none" xmlns="http://www.w3.org/2000/svg">
<path d="M38.6715 18.85C38.4354 18.2385 38.0738 17.6833 37.6101 17.22C37.1464 16.7568 36.5908 16.3958 35.979 16.1604C35.1368 15.8484 34.2471 15.6835 33.3489 15.6729C31.8553 15.6049 31.4076 15.5879 27.624 15.5879C23.8403 15.5879 23.3925 15.6049 21.8989 15.6729C20.9998 15.6832 20.1092 15.8481 19.266 16.1604C18.6545 16.3965 18.0993 16.758 17.6361 17.2218C17.1728 17.6855 16.8118 18.2411 16.5764 18.8528C16.2644 19.6951 16.0995 20.5848 16.0889 21.4829C16.0209 22.9765 16.0039 23.4243 16.0039 27.2079C16.0039 30.9915 16.0209 31.4393 16.0889 32.9329C16.0992 33.832 16.2641 34.7227 16.5764 35.5659C16.8125 36.1773 17.174 36.7326 17.6378 37.1958C18.1015 37.659 18.6571 38.02 19.2689 38.2555C20.1111 38.5674 21.0008 38.7323 21.8989 38.7429C23.3925 38.811 23.8403 38.8251 27.624 38.8251C31.4076 38.8251 31.8553 38.811 33.3489 38.7401C34.2479 38.7307 35.1385 38.5668 35.9819 38.2555C36.5934 38.0194 37.1486 37.6578 37.6118 37.1941C38.0751 36.7304 38.4361 36.1747 38.6715 35.563C38.9835 34.7207 39.1484 33.8311 39.159 32.9329C39.227 31.4393 39.2412 30.9915 39.2412 27.2079C39.2412 23.4243 39.227 22.9765 39.1561 21.4829C39.1468 20.584 38.9828 19.6934 38.6715 18.85ZM27.624 34.486C26.1845 34.486 24.7773 34.0592 23.5804 33.2595C22.3836 32.4597 21.4507 31.323 20.8998 29.9931C20.349 28.6632 20.2048 27.1998 20.4857 25.788C20.7665 24.3762 21.4597 23.0794 22.4775 22.0615C23.4954 21.0436 24.7922 20.3505 26.2041 20.0696C27.6159 19.7888 29.0793 19.933 30.4092 20.4838C31.7391 21.0347 32.8758 21.9675 33.6755 23.1644C34.4752 24.3613 34.9021 25.7684 34.9021 27.2079C34.9021 29.1382 34.1353 30.9894 32.7704 32.3543C31.4054 33.7192 29.5542 34.486 27.624 34.486ZM35.1883 21.344C34.852 21.344 34.5232 21.2443 34.2436 21.0575C33.9639 20.8706 33.746 20.605 33.6173 20.2943C33.4886 19.9836 33.4549 19.6417 33.5205 19.3118C33.5861 18.9819 33.7481 18.6789 33.9859 18.4411C34.2237 18.2033 34.5267 18.0413 34.8566 17.9757C35.1864 17.9101 35.5283 17.9438 35.8391 18.0725C36.1498 18.2012 36.4154 18.4192 36.6022 18.6988C36.7891 18.9785 36.8888 19.3072 36.8888 19.6436C36.8888 20.0946 36.7097 20.5271 36.3908 20.846C36.0718 21.1649 35.6393 21.344 35.1883 21.344ZM32.3485 27.2079C32.3485 28.1423 32.0714 29.0558 31.5523 29.8327C31.0331 30.6097 30.2952 31.2152 29.432 31.5728C28.5687 31.9304 27.6187 32.024 26.7022 31.8417C25.7858 31.6594 24.9439 31.2094 24.2832 30.5487C23.6225 29.8879 23.1725 29.0461 22.9902 28.1296C22.8079 27.2132 22.9015 26.2632 23.259 25.3999C23.6166 24.5366 24.2222 23.7987 24.9991 23.2796C25.7761 22.7605 26.6895 22.4834 27.624 22.4834C28.877 22.4834 30.0787 22.9811 30.9647 23.8672C31.8507 24.7532 32.3485 25.9549 32.3485 27.2079ZM27.624 0C22.2427 0 16.9824 1.59572 12.508 4.58536C8.03372 7.57501 4.54641 11.8243 2.48711 16.7959C0.427804 21.7675 -0.111003 27.2381 0.93882 32.5159C1.98864 37.7937 4.57995 42.6417 8.38504 46.4468C12.1901 50.2519 17.0381 52.8432 22.3159 53.8931C27.5938 54.9429 33.0644 54.4041 38.036 52.3448C43.0076 50.2855 47.2569 46.7982 50.2465 42.3238C53.2361 37.8495 54.8319 32.5891 54.8319 27.2079C54.8319 19.9919 51.9653 13.0715 46.8629 7.96902C41.7604 2.86654 34.8399 0 27.624 0ZM41.7097 33.0491C41.6857 34.2251 41.4624 35.3885 41.0494 36.4898C40.6854 37.431 40.1288 38.2857 39.4153 38.9992C38.7017 39.7128 37.847 40.2694 36.9058 40.6333C35.8054 41.0461 34.643 41.2694 33.468 41.2937C31.9545 41.3617 31.4727 41.3787 27.624 41.3787C23.7752 41.3787 23.2934 41.3617 21.7799 41.2937C20.6049 41.2694 19.4425 41.0461 18.3421 40.6333C17.4009 40.2694 16.5462 39.7128 15.8326 38.9992C15.1191 38.2857 14.5625 37.431 14.1985 36.4898C13.7858 35.3894 13.5625 34.227 13.5382 33.052C13.4702 31.5385 13.4532 31.0567 13.4532 27.2079C13.4532 23.3591 13.4702 22.8773 13.5382 21.3639C13.5616 20.189 13.7839 19.0266 14.1957 17.9261C14.5597 16.9841 15.1165 16.1286 15.8306 15.4146C16.5447 14.7005 17.4001 14.1436 18.3421 13.7797C19.4427 13.3679 20.6051 13.1456 21.7799 13.1222C23.2934 13.0541 23.7752 13.0371 27.624 13.0371C31.4727 13.0371 31.9545 13.0541 33.468 13.1222C34.6428 13.1456 35.8052 13.3679 36.9058 13.7797C37.8473 14.144 38.7022 14.701 39.4157 15.415C40.1293 16.1291 40.6857 16.9844 41.0494 17.9261C41.4621 19.0265 41.6854 20.1889 41.7097 21.3639C41.7777 22.8773 41.7947 23.3591 41.7947 27.2079C41.7947 31.0567 41.7777 31.5357 41.7097 33.0491Z" fill="#6B6B6B"/>
</svg>
