<svg width="24" height="24" viewBox="0 0 24 24" fill="none" xmlns="http://www.w3.org/2000/svg">
<path fill-rule="evenodd" clip-rule="evenodd" d="M3.59961 5.99999C3.59961 5.68173 3.72604 5.3765 3.95108 5.15146C4.17612 4.92642 4.48135 4.79999 4.79961 4.79999H19.1996C19.5179 4.79999 19.8231 4.92642 20.0481 5.15146C20.2732 5.3765 20.3996 5.68173 20.3996 5.99999C20.3996 6.31825 20.2732 6.62347 20.0481 6.84852C19.8231 7.07356 19.5179 7.19999 19.1996 7.19999H4.79961C4.48135 7.19999 4.17612 7.07356 3.95108 6.84852C3.72604 6.62347 3.59961 6.31825 3.59961 5.99999ZM3.59961 12C3.59961 11.6817 3.72604 11.3765 3.95108 11.1515C4.17612 10.9264 4.48135 10.8 4.79961 10.8H19.1996C19.5179 10.8 19.8231 10.9264 20.0481 11.1515C20.2732 11.3765 20.3996 11.6817 20.3996 12C20.3996 12.3182 20.2732 12.6235 20.0481 12.8485C19.8231 13.0736 19.5179 13.2 19.1996 13.2H4.79961C4.48135 13.2 4.17612 13.0736 3.95108 12.8485C3.72604 12.6235 3.59961 12.3182 3.59961 12ZM3.59961 18C3.59961 17.6817 3.72604 17.3765 3.95108 17.1515C4.17612 16.9264 4.48135 16.8 4.79961 16.8H11.9996C12.3179 16.8 12.6231 16.9264 12.8481 17.1515C13.0732 17.3765 13.1996 17.6817 13.1996 18C13.1996 18.3182 13.0732 18.6235 12.8481 18.8485C12.6231 19.0736 12.3179 19.2 11.9996 19.2H4.79961C4.48135 19.2 4.17612 19.0736 3.95108 18.8485C3.72604 18.6235 3.59961 18.3182 3.59961 18Z" fill="#DDDDDD"/>
</svg>
