<svg width="24" height="24" viewBox="0 0 24 24" fill="none" xmlns="http://www.w3.org/2000/svg">
<path d="M12.0581 20C9.83611 20 7.94711 19.222 6.39111 17.666C4.83511 16.11 4.05744 14.2213 4.05811 12C4.05811 10.3533 4.52911 8.84165 5.47111 7.46499C6.41377 6.08699 7.75044 5.09599 9.48111 4.49199C9.68511 4.42065 9.86377 4.40199 10.0171 4.43599C10.1704 4.46999 10.2974 4.53632 10.3981 4.63499C10.4988 4.73365 10.5628 4.86032 10.5901 5.01499C10.6168 5.17032 10.5958 5.33332 10.5271 5.50399C10.3978 5.82199 10.3038 6.14565 10.2451 6.47499C10.1864 6.80432 10.1574 7.14599 10.1581 7.49999C10.1581 9.28199 10.7791 10.7943 12.0211 12.037C13.2638 13.279 14.7761 13.9 16.5581 13.9C17.0234 13.9 17.4491 13.8507 17.8351 13.752C18.2218 13.6533 18.5511 13.5733 18.8231 13.512C18.9684 13.4853 19.1014 13.4887 19.2221 13.522C19.3428 13.5553 19.4401 13.614 19.5141 13.698C19.5908 13.7813 19.6428 13.884 19.6701 14.006C19.6974 14.128 19.6818 14.267 19.6231 14.423C19.1464 16.0563 18.2121 17.394 16.8201 18.436C15.4281 19.478 13.8408 19.9993 12.0581 20Z" fill="#DDDDDD"/>
</svg>
