<svg width="29" height="24" viewBox="0 0 29 24" fill="none" xmlns="http://www.w3.org/2000/svg">
<path d="M10.15 14.5H11.6V4.35H10.15C9.34933 4.35 8.7 4.99933 8.7 5.8V13.05C8.7 13.8507 9.34933 14.5 10.15 14.5ZM26.1 13.05V5.8C26.1 4.99933 25.4507 4.35 24.65 4.35H23.2V14.5H24.65C25.4507 14.5 26.1 13.8507 26.1 13.05ZM28.275 17.4H5.8V0.725C5.8 0.324437 5.47556 0 5.075 0H0.725C0.324437 0 0 0.324437 0 0.725V2.175C0 2.57556 0.324437 2.9 0.725 2.9H2.9V19.575C2.9 19.9756 3.22444 20.3 3.625 20.3H7.38322C7.30211 20.5279 7.25 20.7694 7.25 21.025C7.25 22.2262 8.22377 23.2 9.425 23.2C10.6262 23.2 11.6 22.2262 11.6 21.025C11.6 20.7694 11.5479 20.5279 11.4668 20.3H20.4332C20.3521 20.5279 20.3 20.7694 20.3 21.025C20.3 22.2262 21.2738 23.2 22.475 23.2C23.6762 23.2 24.65 22.2262 24.65 21.025C24.65 20.7694 24.5979 20.5279 24.5168 20.3H28.275C28.6756 20.3 29 19.9756 29 19.575V18.125C29 17.7244 28.6756 17.4 28.275 17.4ZM21.75 4.35V2.175C21.75 0.973766 20.7762 0 19.575 0H15.225C14.0238 0 13.05 0.973766 13.05 2.175V14.5H21.75V4.35ZM19.575 4.35H15.225V2.175H19.575V4.35Z" fill="#DDDDDD"/>
</svg>
