<svg width="55" height="55" viewBox="0 0 55 55" fill="none" xmlns="http://www.w3.org/2000/svg">
<path d="M27.4555 0C12.4304 0 0.247559 12.1828 0.247559 27.2079C0.247559 42.233 12.4304 54.4159 27.4555 54.4159C42.4806 54.4159 54.6634 42.233 54.6634 27.2079C54.6634 12.1828 42.4806 0 27.4555 0ZM40.5311 20.5092C40.5493 20.7946 40.5493 21.0922 40.5493 21.3837C40.5493 30.2992 33.7595 40.569 21.3519 40.569C17.5258 40.569 13.9791 39.4576 10.991 37.5445C11.5376 37.6052 12.0599 37.6295 12.6187 37.6295C15.7767 37.6295 18.6797 36.5607 20.9936 34.7508C18.0299 34.6901 15.5399 32.7467 14.6896 30.0745C15.7281 30.2263 16.6634 30.2263 17.7323 29.953C16.2063 29.643 14.8346 28.8142 13.8504 27.6074C12.8662 26.4007 12.3301 24.8904 12.3332 23.3332V23.2482C13.226 23.7523 14.2766 24.062 15.3759 24.1045C14.4518 23.4887 13.694 22.6543 13.1696 21.6754C12.6452 20.6965 12.3704 19.6034 12.3697 18.4929C12.3697 17.2357 12.6976 16.0879 13.2867 15.0919C14.9805 17.177 17.0942 18.8824 19.4903 20.0972C21.8864 21.312 24.5112 22.009 27.1943 22.1429C26.2408 17.5576 29.6661 13.8469 33.7838 13.8469C35.7272 13.8469 37.4763 14.6607 38.7091 15.9725C40.2335 15.6871 41.6911 15.1162 42.9907 14.351C42.4867 15.9118 41.4299 17.2297 40.027 18.0617C41.3874 17.9159 42.6992 17.5394 43.9139 17.011C42.9968 18.3593 41.849 19.5557 40.5311 20.5092Z" fill="#6B6B6B"/>
</svg>
