<svg width="50" height="50" viewBox="0 0 50 50" fill="none" xmlns="http://www.w3.org/2000/svg">
<path fill-rule="evenodd" clip-rule="evenodd" d="M25 0C11.1895 0 0 11.1895 0 25C0 38.8105 11.1895 50 25 50C38.8105 50 50 38.8105 50 25C50 11.1895 38.8105 0 25 0ZM29.4355 25V36.6936C29.4355 37.3589 28.8911 37.9032 28.2258 37.9032H21.7742C21.1089 37.9032 20.5645 37.3589 20.5645 36.6936V25H13.4173C12.3387 25 11.7944 23.6996 12.5605 22.9335L24.1532 11.4113C24.627 10.9375 25.3831 10.9375 25.8569 11.4113L37.4395 22.9335C38.2056 23.6895 37.6613 25 36.5827 25H29.4355ZM25 48C37.7025 48 48 37.7025 48 25C48 12.2975 37.7025 2 25 2C12.2975 2 2 12.2975 2 25C2 37.7025 12.2975 48 25 48Z" fill="#9EB7E9"/>
</svg>
