<svg width="20" height="20" viewBox="0 0 20 20" fill="none" xmlns="http://www.w3.org/2000/svg">
<path d="M2.2915 11.6667H17.7082M7.5915 14.8175V16.0417C7.5915 16.4837 7.41591 16.9076 7.10335 17.2202C6.79079 17.5327 6.36687 17.7083 5.92484 17.7083H5.42484M12.4082 14.8175V16.0417C12.4082 16.4837 12.5838 16.9076 12.8963 17.2202C13.2089 17.5327 13.6328 17.7083 14.0748 17.7083H14.5748M5.42317 17.7083H14.5765M2.2915 5.20833C2.2915 4.43478 2.59879 3.69292 3.14578 3.14594C3.69276 2.59895 4.43462 2.29166 5.20817 2.29166H14.7915C15.5651 2.29166 16.3069 2.59895 16.8539 3.14594C17.4009 3.69292 17.7082 4.43478 17.7082 5.20833V11.9008C17.7082 12.6744 17.4009 13.4162 16.8539 13.9632C16.3069 14.5102 15.5651 14.8175 14.7915 14.8175H5.20817C4.43462 14.8175 3.69276 14.5102 3.14578 13.9632C2.59879 13.4162 2.2915 12.6744 2.2915 11.9008V5.20833Z" stroke="#9EB7E9" stroke-width="1.5" stroke-linecap="round" stroke-linejoin="round"/>
</svg>
