<svg width="86" height="86" viewBox="0 0 86 86" fill="none" xmlns="http://www.w3.org/2000/svg">
<path d="M43 0C66.7482 0 86 19.2518 86 43C86 66.7482 66.7482 86 43 86C19.2518 86 0 66.7482 0 43C0 19.2518 19.2518 0 43 0ZM43 21.0947C40.6849 21.0948 38.6481 22.2192 37.3525 23.9336H24.543C23.7586 23.9336 23.1231 24.5691 23.123 25.3535V28.1934C23.1231 28.9778 23.7585 29.6133 24.543 29.6133H36.0439C36.5081 31.899 38.0733 33.7802 40.1602 34.6934V60.8486H24.543C23.7586 60.8486 23.1232 61.4842 23.123 62.2686V65.1084C23.1231 65.8928 23.7585 66.5283 24.543 66.5283H61.458C62.2423 66.5282 62.8779 65.8928 62.8779 65.1084V62.2686C62.8778 61.4843 62.2423 60.8488 61.458 60.8486H45.8398V34.6934C47.926 33.7803 49.4919 31.9 49.9561 29.6133H61.458C62.2423 29.6132 62.8779 28.9777 62.8779 28.1934V25.3535C62.8778 24.5692 62.2423 23.9337 61.458 23.9336H48.6475C47.3519 22.2193 45.3151 21.0947 43 21.0947ZM29.7725 34.8037C28.2062 31.6721 23.7212 31.6659 22.1523 34.8037C14.4218 50.2666 14.6055 49.5198 14.6055 50.9102H14.6045C14.6045 54.8306 19.69 58.0098 25.9629 58.0098C32.2356 58.0096 37.3213 54.8305 37.3213 50.9102H37.3193C37.3193 49.4745 37.4381 50.135 29.7725 34.8037ZM63.8477 34.8037C62.2814 31.6721 57.7964 31.6659 56.2275 34.8037C48.497 50.2665 48.6816 49.5198 48.6816 50.9102H48.6797C48.6797 54.8306 53.7652 58.0098 60.0381 58.0098C66.3109 58.0097 71.3965 54.8306 71.3965 50.9102H71.3945C71.3945 49.4745 71.5134 50.1352 63.8477 34.8037ZM32.3516 49.4902H19.5732L25.9629 36.7119L32.3516 49.4902ZM66.4268 49.4902H53.6484L60.0381 36.7119L66.4268 49.4902Z" fill="#233655"/>
</svg>
