<svg width="314" height="45" viewBox="0 0 314 45" fill="none" xmlns="http://www.w3.org/2000/svg">
<g clip-path="url(#clip0_276_74)">
<path d="M0 22.4061C3.11092 21.8412 6.04454 21.3173 8.9701 20.7852C12.0246 20.2285 15.0791 19.6637 18.1417 19.1398C18.6172 19.0579 18.7864 18.886 18.8751 18.403C19.8986 12.3697 20.9464 6.34461 21.9941 0.311323C22.0021 0.254019 22.0424 0.204901 22.1472 0.00843048C22.2278 0.344068 22.2923 0.556911 22.3326 0.769755C23.3642 6.63932 24.4038 12.5171 25.4113 18.3948C25.4918 18.8696 25.6611 19.0497 26.1447 19.1316C32.1408 20.1876 38.129 21.2764 44.1493 22.5043C43.287 22.6681 42.4327 22.8482 41.5703 23.0037C36.4446 23.9287 31.3268 24.8702 26.193 25.7707C25.6772 25.8607 25.4999 26.0326 25.4113 26.5647C24.3958 32.5653 23.3481 38.5658 22.3084 44.5582C22.2923 44.6319 22.252 44.7055 22.115 45.0084C21.7926 43.2238 21.5105 41.6602 21.2365 40.0967C20.4386 35.5615 19.6407 31.0263 18.867 26.4911C18.7784 25.9835 18.5688 25.8607 18.1094 25.7788C12.1697 24.7392 6.23797 23.675 0.306257 22.6108C0.2579 22.6026 0.217604 22.5535 0 22.4061ZM9.30054 22.3652C9.30054 22.4307 9.30054 22.4961 9.30054 22.5698C12.5968 23.1592 15.8851 23.7487 19.1813 24.3217C19.7374 24.4199 20.1888 24.5263 20.2935 25.2631C20.5595 27.1623 20.9141 29.0452 21.2365 30.928C21.5025 32.4589 21.7845 33.9815 22.0747 35.6024C22.2117 35.4387 22.2762 35.4059 22.2842 35.3568C22.8564 32.0414 23.4286 28.7259 23.9767 25.4023C24.0815 24.7719 24.2991 24.4445 24.9599 24.3299C27.4825 23.9124 29.997 23.4539 32.5116 22.9955C33.3417 22.8482 34.1718 22.6762 35.0019 22.5125C31.6815 21.743 28.3852 21.1536 25.0889 20.5806C24.5247 20.4823 24.0815 20.3759 23.9767 19.6391C23.7107 17.7399 23.3561 15.8571 23.0337 13.9742C22.7678 12.4516 22.4857 10.9207 22.1956 9.30805C22.0585 9.4554 21.9941 9.49633 21.986 9.53726C21.4138 12.8527 20.8335 16.1682 20.2935 19.4918C20.1888 20.1221 19.9712 20.466 19.3103 20.5642C17.8032 20.7852 16.3122 21.0717 14.8132 21.3419C12.9676 21.6775 11.13 22.0132 9.28442 22.357L9.30054 22.3652Z" fill="#9EB7E9"/>
<path d="M62.138 9.41422C61.2998 8.8903 60.3407 8.62834 59.2527 8.62834C58.1647 8.62834 57.254 8.89849 56.4319 9.4306C55.6099 9.97089 54.9732 10.7977 54.538 11.9274L45.5276 36.6009H50.3632L52.5312 30.5103H65.9178L68.0052 36.6009H73.0746L64.0239 11.8865C63.6129 10.7568 62.9842 9.93815 62.146 9.41422H62.138ZM53.9174 26.3516L58.479 13.4992C58.5596 13.2618 58.6563 13.0735 58.7853 12.9261C58.9142 12.7788 59.0835 12.7133 59.285 12.7133C59.4864 12.7133 59.6638 12.7788 59.8088 12.9098C59.9539 13.0407 60.0748 13.2372 60.1796 13.4992L64.5155 26.3516H53.9174Z" fill="#9EB7E9"/>
<path d="M80.2239 7.92432H75.7744V36.6091H80.2239V7.92432Z" fill="#9EB7E9"/>
<path d="M101.363 17.3713C99.9285 16.5199 98.2764 16.0942 96.3905 16.0942C95.4636 16.0942 94.5852 16.2416 93.7631 16.5281C92.941 16.8146 92.1915 17.2239 91.5226 17.7479C90.8537 18.2718 90.3137 18.8858 89.8946 19.598H89.8543V7.92432H85.4055V26.3516C85.4055 28.5538 85.8407 30.4612 86.7031 32.0657C87.5654 33.6702 88.7743 34.9145 90.3217 35.7822C91.8691 36.65 93.6503 37.0757 95.6571 37.0757C97.2528 37.0757 98.6874 36.8219 99.9527 36.3062C101.218 35.7986 102.29 35.0537 103.185 34.0877C104.071 33.1217 104.756 31.9756 105.232 30.6494C105.707 29.3233 105.949 27.8661 105.949 26.2698C105.949 24.2232 105.546 22.4468 104.732 20.9241C103.918 19.4015 102.798 18.2227 101.363 17.3713ZM100.726 30.0437C100.235 31.0424 99.5497 31.8201 98.6793 32.3849C97.8009 32.9498 96.7934 33.2281 95.6651 33.2281C94.5368 33.2281 93.5616 32.9498 92.6831 32.3849C91.8047 31.8201 91.1196 31.0424 90.6361 30.0437C90.1525 29.0449 89.9027 27.8989 89.9027 26.5891C89.9027 25.2792 90.1444 24.125 90.6361 23.1344C91.1277 22.1357 91.8127 21.358 92.6831 20.7932C93.5616 20.2283 94.569 19.95 95.6974 19.95C96.8257 19.95 97.8331 20.2365 98.6954 20.8177C99.5578 21.3908 100.235 22.1766 100.726 23.1754C101.218 24.1741 101.46 25.312 101.46 26.5972C101.46 27.8825 101.218 29.0613 100.726 30.0518V30.0437Z" fill="#9EB7E9"/>
<path d="M123.897 17.4695C122.527 16.5527 120.786 16.0942 118.675 16.0942C116.789 16.0942 115.129 16.5363 113.686 17.4286C112.243 18.3209 111.107 19.5488 110.285 21.1206C109.463 22.6924 109.044 24.5097 109.044 26.5809C109.044 28.652 109.511 30.2811 110.438 31.7873C111.365 33.2936 112.662 34.4724 114.323 35.3238C115.983 36.1752 117.925 36.6009 120.141 36.6009H125.445V32.7533H120.141C119.029 32.7533 118.03 32.5732 117.127 32.2212C116.225 31.8692 115.475 31.3453 114.887 30.6494C114.29 29.9536 113.92 29.0859 113.767 28.038H127.774C127.822 27.8579 127.862 27.596 127.887 27.2521C127.911 26.9083 127.927 26.6136 127.927 26.3516C127.927 24.4442 127.596 22.7088 126.944 21.1615C126.283 19.6143 125.275 18.3864 123.905 17.4695H123.897ZM113.726 24.9764C113.807 24.346 113.952 23.7239 114.169 23.1099C114.387 22.4959 114.701 21.9474 115.12 21.4563C115.532 20.9733 116.039 20.5803 116.628 20.2774C117.224 19.9745 117.901 19.8272 118.675 19.8272C119.344 19.8272 119.94 19.9254 120.456 20.1219C120.972 20.3184 121.415 20.5803 121.794 20.9078C122.164 21.2352 122.479 21.62 122.72 22.0702C122.962 22.5205 123.148 22.9871 123.26 23.4865C123.373 23.9858 123.446 24.4852 123.47 24.9764H113.718H113.726Z" fill="#9EB7E9"/>
<path d="M133.399 18.0753C132.408 19.0822 131.908 20.4821 131.908 22.2585V36.6009H136.357V22.4632C136.357 21.8328 136.534 21.3335 136.881 20.9733C137.227 20.6131 137.711 20.4248 138.332 20.4248H142.281V16.5772H137.526C135.769 16.5772 134.399 17.0848 133.407 18.0917L133.399 18.0753Z" fill="#9EB7E9"/>
<path d="M151.75 11.5345H147.342V16.5609H143.941V20.4084H147.342V30.9032C147.342 32.6551 147.841 34.0468 148.833 35.07C149.824 36.0933 151.202 36.6009 152.951 36.6009H157.867V32.7533H153.725C153.128 32.7533 152.653 32.565 152.29 32.1803C151.928 31.8037 151.75 31.3125 151.75 30.7068V20.4084H157.9V16.5609H151.75V11.5345Z" fill="#9EB7E9"/>
<path d="M175.195 10.1592C174.035 10.8632 173.116 11.8128 172.431 12.9916C171.746 14.1705 171.407 15.4966 171.407 16.962C171.407 18.0589 171.665 19.115 172.181 20.1219C172.697 21.1288 173.43 21.9884 174.389 22.6924C173.438 23.3964 172.697 24.2723 172.165 25.3038C171.633 26.3353 171.375 27.4322 171.375 28.5865C171.375 30.0518 171.713 31.3944 172.399 32.6142C173.084 33.8339 174.018 34.7999 175.203 35.5203C176.388 36.2407 177.734 36.6009 179.225 36.6009H189.976V32.475H179.805C179.056 32.475 178.395 32.2949 177.814 31.9429C177.234 31.5909 176.783 31.1161 176.46 30.5267C176.138 29.9372 175.977 29.2987 175.977 28.6192C175.977 27.9398 176.138 27.2603 176.46 26.6709C176.783 26.0815 177.242 25.6067 177.831 25.2383C178.427 24.8699 179.104 24.6898 179.878 24.6898H188.622V20.523H179.644C178.975 20.523 178.371 20.3593 177.823 20.0318C177.283 19.7044 176.839 19.2623 176.509 18.7138C176.17 18.1654 176.009 17.576 176.009 16.9456C176.009 16.2416 176.17 15.6112 176.493 15.0628C176.815 14.5143 177.25 14.0722 177.79 13.7448C178.33 13.4173 178.927 13.2536 179.571 13.2536H189.976V9.08678H179.064C177.645 9.08678 176.356 9.43879 175.195 10.151V10.1592Z" fill="#9EB7E9"/>
<path d="M198.713 16.569H194.264V36.6091H198.713V16.569Z" fill="#9EB7E9"/>
<path d="M196.472 7.95707C195.699 7.95707 195.03 8.24359 194.457 8.82482C193.885 9.40604 193.603 10.0855 193.603 10.8714C193.603 11.6573 193.885 12.3367 194.457 12.918C195.021 13.491 195.699 13.7857 196.472 13.7857C197.246 13.7857 197.947 13.4992 198.504 12.918C199.06 12.3449 199.334 11.6573 199.334 10.8714C199.334 10.0855 199.06 9.40604 198.504 8.82482C197.947 8.25178 197.27 7.95707 196.472 7.95707Z" fill="#9EB7E9"/>
<path d="M218.466 17.2567C217.055 16.4872 215.403 16.0942 213.493 16.0942C211.583 16.0942 209.923 16.479 208.504 17.2567C207.086 18.0262 205.99 19.0904 205.216 20.4412C204.443 21.7919 204.056 23.3309 204.056 25.0582V36.6091H208.504V25.0991C208.504 24.0759 208.73 23.1836 209.181 22.4059C209.633 21.6364 210.237 21.0306 211.003 20.5967C211.76 20.1628 212.582 19.95 213.461 19.95C214.339 19.95 215.194 20.1628 215.959 20.5967C216.717 21.0306 217.329 21.6282 217.797 22.4059C218.264 23.1754 218.49 24.0759 218.49 25.0991V36.6091H222.899V25.0582C222.899 23.3309 222.512 21.7919 221.738 20.4412C220.964 19.0904 219.876 18.0344 218.466 17.2567Z" fill="#9EB7E9"/>
<path d="M241.266 25.0173C240.259 24.5752 239.05 24.346 237.631 24.346H233.876C233.231 24.346 232.715 24.1495 232.328 23.7566C231.941 23.3637 231.748 22.9052 231.748 22.3813C231.748 21.8574 231.941 21.3662 232.328 20.9896C232.715 20.6131 233.207 20.4166 233.795 20.4166H242.539V16.569H233.368C232.231 16.569 231.216 16.8474 230.313 17.3959C229.411 17.9443 228.693 18.6647 228.169 19.557C227.638 20.4493 227.38 21.4317 227.38 22.5041C227.38 23.8385 227.662 24.9436 228.234 25.8277C228.806 26.7118 229.572 27.3504 230.555 27.7761C231.538 28.1936 232.659 28.4064 233.924 28.4064H237.792C238.228 28.4064 238.614 28.5046 238.953 28.7011C239.291 28.8976 239.549 29.1514 239.727 29.4706C239.904 29.7817 240.001 30.1501 240.001 30.5676C240.001 30.936 239.904 31.288 239.71 31.6318C239.517 31.9756 239.243 32.2458 238.897 32.4586C238.55 32.6715 238.139 32.7697 237.68 32.7697H228.161V36.6172H238.139C239.324 36.6172 240.387 36.3389 241.33 35.7741C242.273 35.2092 243.015 34.4479 243.555 33.4983C244.095 32.5405 244.369 31.5172 244.369 30.412C244.369 29.0531 244.103 27.9234 243.579 27.0311C243.047 26.1388 242.281 25.4757 241.274 25.0255L241.266 25.0173Z" fill="#9EB7E9"/>
<path d="M253.798 11.5345H249.39V16.5609H245.989V20.4084H249.39V30.9032C249.39 32.6551 249.89 34.0468 250.881 35.07C251.872 36.0933 253.25 36.6009 254.999 36.6009H259.915V32.7533H255.773C255.176 32.7533 254.701 32.565 254.338 32.1803C253.976 31.8037 253.798 31.3125 253.798 30.7068V20.4084H259.948V16.5609H253.798V11.5345Z" fill="#9EB7E9"/>
<path d="M277.171 17.4695C275.8 16.5527 274.06 16.0942 271.948 16.0942C270.062 16.0942 268.402 16.5363 266.959 17.4286C265.517 18.3209 264.38 19.5488 263.558 21.1206C262.736 22.6924 262.317 24.5097 262.317 26.5809C262.317 28.652 262.785 30.2811 263.711 31.7873C264.638 33.2936 265.936 34.4724 267.596 35.3238C269.256 36.1752 271.199 36.6009 273.415 36.6009H278.718V32.7533H273.415C272.303 32.7533 271.303 32.5732 270.401 32.2212C269.498 31.8692 268.749 31.3453 268.16 30.6494C267.564 29.9536 267.193 29.0859 267.04 28.038H281.047C281.096 27.8579 281.136 27.596 281.16 27.2521C281.184 26.9083 281.2 26.6136 281.2 26.3516C281.2 24.4442 280.87 22.7088 280.217 21.1615C279.556 19.6143 278.549 18.3864 277.179 17.4695H277.171ZM267 24.9764C267.08 24.346 267.225 23.7239 267.443 23.1099C267.661 22.4959 267.975 21.9474 268.394 21.4563C268.805 20.9733 269.313 20.5803 269.901 20.2774C270.497 19.9745 271.174 19.8272 271.948 19.8272C272.617 19.8272 273.213 19.9254 273.729 20.1219C274.245 20.3184 274.688 20.5803 275.067 20.9078C275.438 21.2352 275.752 21.62 275.994 22.0702C276.236 22.5205 276.421 22.9871 276.534 23.4865C276.647 23.9858 276.719 24.4852 276.743 24.9764H266.992H267Z" fill="#9EB7E9"/>
<path d="M287.535 7.95707C286.762 7.95707 286.092 8.24359 285.52 8.82482C284.948 9.40604 284.666 10.0855 284.666 10.8714C284.666 11.6573 284.948 12.3367 285.52 12.918C286.084 13.491 286.762 13.7857 287.535 13.7857C288.309 13.7857 289.01 13.4992 289.567 12.918C290.123 12.3449 290.397 11.6573 290.397 10.8714C290.397 10.0855 290.123 9.40604 289.567 8.82482C289.01 8.25178 288.333 7.95707 287.535 7.95707Z" fill="#9EB7E9"/>
<path d="M289.776 16.569H285.327V36.6091H289.776V16.569Z" fill="#9EB7E9"/>
<path d="M312.793 20.433C312.019 19.0822 310.931 18.0262 309.521 17.2485C308.111 16.479 306.458 16.086 304.548 16.086C302.638 16.086 300.978 16.4708 299.56 17.2485C298.141 18.018 297.045 19.0822 296.271 20.433C295.498 21.7837 295.111 23.3227 295.111 25.05V36.6009H299.56V25.091C299.56 24.0677 299.785 23.1754 300.237 22.3977C300.688 21.6282 301.292 21.0224 302.058 20.5885C302.816 20.1546 303.638 19.9418 304.516 19.9418C305.395 19.9418 306.249 20.1546 307.015 20.5885C307.772 21.0224 308.385 21.62 308.852 22.3977C309.32 23.1672 309.545 24.0677 309.545 25.091V36.6009H313.954V25.05C313.954 23.3227 313.567 21.7837 312.793 20.433Z" fill="#9EB7E9"/>
</g>
<defs>
<clipPath id="clip0_276_74">
<rect width="313.953" height="45" fill="white"/>
</clipPath>
</defs>
</svg>
