<svg width="26" height="26" viewBox="0 0 26 26" fill="none" xmlns="http://www.w3.org/2000/svg">
<path fill-rule="evenodd" clip-rule="evenodd" d="M3.90039 9.1C3.90039 8.75522 4.03735 8.42456 4.28115 8.18076C4.52495 7.93697 4.85561 7.8 5.20039 7.8H20.8004C21.1452 7.8 21.4758 7.93697 21.7196 8.18076C21.9634 8.42456 22.1004 8.75522 22.1004 9.1C22.1004 9.44478 21.9634 9.77544 21.7196 10.0192C21.4758 10.263 21.1452 10.4 20.8004 10.4H5.20039C4.85561 10.4 4.52495 10.263 4.28115 10.0192C4.03735 9.77544 3.90039 9.44478 3.90039 9.1ZM3.90039 16.9C3.90039 16.5552 4.03735 16.2246 4.28115 15.9808C4.52495 15.737 4.85561 15.6 5.20039 15.6H20.8004C21.1452 15.6 21.4758 15.737 21.7196 15.9808C21.9634 16.2246 22.1004 16.5552 22.1004 16.9C22.1004 17.2448 21.9634 17.5754 21.7196 17.8192C21.4758 18.063 21.1452 18.2 20.8004 18.2H5.20039C4.85561 18.2 4.52495 18.063 4.28115 17.8192C4.03735 17.5754 3.90039 17.2448 3.90039 16.9Z" fill="#9EB7E9"/>
</svg>
