<svg width="20" height="20" viewBox="0 0 20 20" fill="none" xmlns="http://www.w3.org/2000/svg">
<path d="M9.99989 15.8333C10.204 15.8334 10.401 15.9083 10.5535 16.0439C10.7061 16.1796 10.8035 16.3665 10.8274 16.5692L10.8332 16.6667V17.5C10.833 17.7124 10.7517 17.9167 10.6059 18.0711C10.46 18.2256 10.2608 18.3185 10.0487 18.331C9.83669 18.3434 9.62791 18.2744 9.46503 18.1381C9.30215 18.0018 9.19748 17.8084 9.17239 17.5975L9.16656 17.5V16.6667C9.16656 16.4457 9.25435 16.2337 9.41063 16.0774C9.56692 15.9211 9.77888 15.8333 9.99989 15.8333ZM15.2607 14.0917L15.3391 14.1608L15.9224 14.7442C16.0718 14.8941 16.1586 15.0954 16.1651 15.307C16.1715 15.5186 16.0972 15.7248 15.9572 15.8836C15.8172 16.0424 15.6219 16.1419 15.4112 16.162C15.2004 16.1821 14.9899 16.1212 14.8224 15.9917L14.7441 15.9225L14.1607 15.3392C14.0169 15.1956 13.9305 15.0045 13.9178 14.8017C13.905 14.5989 13.9668 14.3984 14.0915 14.238C14.2162 14.0776 14.3952 13.9682 14.5949 13.9305C14.7946 13.8928 15.0011 13.9294 15.1757 14.0333L15.2607 14.0917ZM5.83906 14.1608C5.98254 14.3043 6.06873 14.4952 6.08146 14.6978C6.0942 14.9003 6.0326 15.1005 5.90822 15.2608L5.83906 15.3392L5.25572 15.9225C5.10576 16.072 4.90453 16.1587 4.6929 16.1652C4.48128 16.1717 4.27513 16.0973 4.11633 15.9573C3.95752 15.8173 3.85797 15.622 3.83789 15.4113C3.81781 15.2005 3.87871 14.99 4.00822 14.8225L4.07739 14.7442L4.66072 14.1608C4.817 14.0046 5.02892 13.9168 5.24989 13.9168C5.47086 13.9168 5.68278 14.0046 5.83906 14.1608ZM3.33322 9.16667C3.54562 9.1669 3.74992 9.24823 3.90436 9.39404C4.05881 9.53985 4.15175 9.73913 4.1642 9.95116C4.17665 10.1632 4.10766 10.372 3.97134 10.5349C3.83501 10.6977 3.64164 10.8024 3.43072 10.8275L3.33322 10.8333H2.49989C2.28749 10.8331 2.0832 10.7518 1.92875 10.606C1.7743 10.4602 1.68136 10.2609 1.66891 10.0488C1.65647 9.8368 1.72545 9.62802 1.86178 9.46514C1.9981 9.30226 2.19148 9.19759 2.40239 9.1725L2.49989 9.16667H3.33322ZM17.4999 9.16667C17.7123 9.1669 17.9166 9.24823 18.071 9.39404C18.2255 9.53985 18.3184 9.73913 18.3309 9.95116C18.3433 10.1632 18.2743 10.372 18.138 10.5349C18.0017 10.6977 17.8083 10.8024 17.5974 10.8275L17.4999 10.8333H16.6666C16.4542 10.8331 16.2499 10.7518 16.0954 10.606C15.941 10.4602 15.848 10.2609 15.8356 10.0488C15.8231 9.8368 15.8921 9.62802 16.0284 9.46514C16.1648 9.30226 16.3581 9.19759 16.5691 9.1725L16.6666 9.16667H17.4999ZM5.17739 4.00833L5.25572 4.0775L5.83906 4.66083C5.98851 4.8108 6.07529 5.01203 6.08175 5.22365C6.08821 5.43528 6.01388 5.64143 5.87385 5.80023C5.73382 5.95904 5.5386 6.05859 5.32783 6.07867C5.11706 6.09874 4.90655 6.03784 4.73906 5.90833L4.66072 5.83917L4.07739 5.25583C3.93413 5.11223 3.84817 4.92131 3.83561 4.71886C3.82306 4.51641 3.88477 4.31633 4.00919 4.15613C4.13361 3.99593 4.31219 3.88661 4.51145 3.84866C4.71071 3.81071 4.91697 3.84674 5.09156 3.95L5.17739 4.00833ZM15.9224 4.0775C16.0659 4.22099 16.1521 4.41191 16.1648 4.61443C16.1775 4.81695 16.1159 5.01716 15.9916 5.1775L15.9224 5.25583L15.3391 5.83917C15.1891 5.98862 14.9879 6.0754 14.7762 6.08186C14.5646 6.08832 14.3585 6.01399 14.1997 5.87396C14.0409 5.73393 13.9413 5.53871 13.9212 5.32794C13.9011 5.11717 13.962 4.90666 14.0916 4.73917L14.1607 4.66083L14.7441 4.0775C14.9003 3.92127 15.1123 3.83351 15.3332 3.83351C15.5542 3.83351 15.7661 3.92127 15.9224 4.0775ZM9.99989 1.66667C10.204 1.66669 10.401 1.74163 10.5535 1.87726C10.7061 2.0129 10.8035 2.19979 10.8274 2.4025L10.8332 2.5V3.33333C10.833 3.54573 10.7517 3.75003 10.6059 3.90447C10.46 4.05892 10.2608 4.15186 10.0487 4.16431C9.83669 4.17676 9.62791 4.10777 9.46503 3.97145C9.30215 3.83512 9.19748 3.64175 9.17239 3.43083L9.16656 3.33333V2.5C9.16656 2.27899 9.25435 2.06702 9.41063 1.91074C9.56692 1.75446 9.77888 1.66667 9.99989 1.66667ZM9.99989 5.83333C10.8163 5.83329 11.6147 6.07307 12.296 6.52292C12.9773 6.97276 13.5114 7.61283 13.832 8.36363C14.1526 9.11444 14.2456 9.94289 14.0995 10.7461C13.9533 11.5493 13.5743 12.2919 13.0097 12.8815C12.4452 13.4712 11.7198 13.8821 10.9237 14.063C10.1276 14.244 9.29586 14.1871 8.53184 13.8994C7.76781 13.6117 7.10513 13.1059 6.62611 12.4448C6.14708 11.7837 5.87282 10.9965 5.83739 10.1808L5.83322 10L5.83739 9.81917C5.88399 8.74646 6.3429 7.73315 7.11841 6.99055C7.89392 6.24795 8.92617 5.8334 9.99989 5.83333Z" fill="#9EB7E9"/>
</svg>
