<svg width="25" height="25" viewBox="0 0 25 25" fill="none" xmlns="http://www.w3.org/2000/svg">
<g clip-path="url(#clip0_347_1462)">
<path d="M14.1604 19.2083L20.834 12.5L14.1604 5.79167C14.1001 5.71252 14.0235 5.64724 13.9358 5.60026C13.8481 5.55328 13.7514 5.52569 13.6521 5.51935C13.5528 5.51302 13.4533 5.52809 13.3604 5.56355C13.2674 5.599 13.1832 5.65402 13.1133 5.72486C13.0435 5.79571 12.9897 5.88073 12.9556 5.97418C12.9214 6.06763 12.9078 6.16732 12.9156 6.2665C12.9233 6.36568 12.9523 6.46204 13.0005 6.54905C13.0487 6.63606 13.1151 6.7117 13.1951 6.77083L18.1882 11.8056L4.90343 11.8056C4.71925 11.8056 4.54262 11.8787 4.41238 12.009C4.28215 12.1392 4.20898 12.3158 4.20898 12.5C4.20898 12.6842 4.28215 12.8608 4.41238 12.991C4.54262 13.1213 4.71925 13.1944 4.90343 13.1944L18.1882 13.1944L13.1951 18.2292C13.0652 18.3599 12.9927 18.5369 12.9933 18.7212C12.994 18.9055 13.0678 19.082 13.1986 19.2118C13.3293 19.3417 13.5063 19.4142 13.6906 19.4136C13.8749 19.4129 14.0514 19.3391 14.1812 19.2083L14.1604 19.2083Z" fill="#B2B2B2"/>
</g>
<defs>
<clipPath id="clip0_347_1462">
<rect width="25" height="25" fill="white" transform="translate(25) rotate(90)"/>
</clipPath>
</defs>
</svg>
