<svg width="31" height="37" viewBox="0 0 31 37" fill="none" xmlns="http://www.w3.org/2000/svg">
<path d="M11.3793 5.68412C11.2402 5.53694 11.1315 5.3638 11.0593 5.17459C10.9872 4.98539 10.953 4.78382 10.9587 4.58139C10.9644 4.37897 11.01 4.17965 11.0927 3.99483C11.1755 3.81001 11.2938 3.64329 11.441 3.50421C11.5882 3.36512 11.7613 3.25639 11.9505 3.18421C12.1397 3.11204 12.3413 3.07784 12.5437 3.08356C12.7462 3.08929 12.9455 3.13483 13.1303 3.21758C13.3151 3.30034 13.4818 3.41869 13.6209 3.56587L26.7251 17.4409C26.9957 17.7271 27.1465 18.1061 27.1465 18.5C27.1465 18.8939 26.9957 19.2729 26.7251 19.5591L13.6209 33.4357C13.4827 33.5861 13.3161 33.7075 13.1306 33.793C12.9451 33.8784 12.7444 33.9262 12.5403 33.9334C12.3362 33.9407 12.1327 33.9073 11.9416 33.8352C11.7505 33.7631 11.5756 33.6538 11.4271 33.5136C11.2786 33.3734 11.1595 33.2051 11.0766 33.0184C10.9937 32.8317 10.9487 32.6305 10.9443 32.4263C10.9398 32.2221 10.976 32.0191 11.0507 31.829C11.1254 31.6389 11.2371 31.4655 11.3793 31.319L23.4845 18.5L11.3793 5.68412Z" fill="#5F5F5F"/>
</svg>
