<svg width="31" height="37" viewBox="0 0 31 37" fill="none" xmlns="http://www.w3.org/2000/svg">
<path d="M19.6207 5.68412C19.7598 5.53694 19.8685 5.3638 19.9407 5.17459C20.0128 4.98539 20.047 4.78382 20.0413 4.58139C20.0356 4.37897 19.99 4.17965 19.9073 3.99483C19.8245 3.81001 19.7062 3.64329 19.559 3.50421C19.4118 3.36512 19.2387 3.25639 19.0495 3.18421C18.8603 3.11204 18.6587 3.07784 18.4563 3.08356C18.2538 3.08929 18.0545 3.13483 17.8697 3.21758C17.6849 3.30034 17.5182 3.41869 17.3791 3.56587L4.27492 17.4409C4.0043 17.7271 3.85352 18.1061 3.85352 18.5C3.85352 18.8939 4.0043 19.2729 4.27492 19.5591L17.3791 33.4357C17.5173 33.5861 17.6839 33.7075 17.8694 33.793C18.0549 33.8784 18.2556 33.9262 18.4597 33.9334C18.6638 33.9407 18.8673 33.9073 19.0584 33.8352C19.2495 33.7631 19.4244 33.6538 19.5729 33.5136C19.7214 33.3734 19.8405 33.2051 19.9234 33.0184C20.0063 32.8317 20.0513 32.6305 20.0557 32.4263C20.0602 32.2221 20.024 32.0191 19.9493 31.829C19.8746 31.6389 19.7629 31.4655 19.6207 31.319L7.5155 18.5L19.6207 5.68412Z" fill="#5F5F5F"/>
</svg>
