<svg width="30" height="30" viewBox="0 0 30 30" fill="none" xmlns="http://www.w3.org/2000/svg">
<path d="M6.50599 14.5875C6.24264 14.3238 6.09473 13.9664 6.09473 13.5937C6.09473 13.2211 6.24264 12.8637 6.50599 12.6L14.4747 4.63123C14.7384 4.36789 15.0958 4.21997 15.4685 4.21997C15.8411 4.21997 16.1986 4.36789 16.4622 4.63123L24.431 12.6C24.6797 12.8665 24.8152 13.2192 24.8089 13.5837C24.8026 13.9482 24.655 14.296 24.3972 14.5537C24.1395 14.8115 23.7917 14.9591 23.4272 14.9654C23.0627 14.9717 22.71 14.8362 22.4435 14.5875L16.8747 9.01873V22.9687C16.8747 23.3417 16.7266 23.6994 16.4629 23.9631C16.1991 24.2268 15.8414 24.375 15.4685 24.375C15.0955 24.375 14.7378 24.2268 14.4741 23.9631C14.2104 23.6994 14.0622 23.3417 14.0622 22.9687V9.01873L8.49349 14.5875C8.22982 14.8508 7.8724 14.9987 7.49974 14.9987C7.12708 14.9987 6.76966 14.8508 6.50599 14.5875Z" fill="#B2B2B2"/>
</svg>
