<svg width="30" height="30" viewBox="0 0 30 30" fill="none" xmlns="http://www.w3.org/2000/svg">
<g clip-path="url(#clip0_232_42)">
<path d="M18.2401 21.9552C17.7596 20.9649 17.1385 20.2442 16.0662 20.6837L13.951 21.4688C12.2576 22.254 11.4139 21.4688 10.5701 20.2911L6.76741 11.6309C6.2928 10.6407 6.53889 9.70907 7.61116 9.26962L10.5701 8.09188C11.6424 7.65243 11.4725 6.72079 10.992 5.73055L8.45491 1.0079C7.97444 0.0176638 6.99007 -0.222571 5.9178 0.216883C3.77327 1.10751 1.99788 2.49032 0.849442 4.54696C-0.556808 7.06063 0.146317 10.5528 0.427567 12.0235C0.708817 13.4942 1.69319 16.0665 2.96468 18.7149C4.23616 21.3634 5.34944 23.4434 6.34554 24.6212C7.34163 25.7989 9.7264 29.0216 12.6854 29.7364C15.1112 30.3224 17.7244 29.8302 19.869 28.9454C20.9412 28.5059 20.9471 27.5743 20.4666 26.5782L18.2401 21.9552ZM24.2283 6.92001H20.7655L25.3826 11.5372H14.9998V13.8458H25.3826L20.7713 18.4571H24.2342L30.0057 12.6856L24.2283 6.92001Z" fill="#B2B2B2"/>
</g>
<defs>
<clipPath id="clip0_232_42">
<rect width="30" height="30" fill="white"/>
</clipPath>
</defs>
</svg>
