<svg width="20" height="20" viewBox="0 0 20 20" fill="none" xmlns="http://www.w3.org/2000/svg">
<path d="M2.29102 11.6667H17.7077M7.59102 14.8175V16.0417C7.59102 16.4837 7.41542 16.9076 7.10286 17.2202C6.7903 17.5327 6.36638 17.7083 5.92435 17.7083H5.42435M12.4077 14.8175V16.0417C12.4077 16.4837 12.5833 16.9076 12.8958 17.2202C13.2084 17.5327 13.6323 17.7083 14.0743 17.7083H14.5743M5.42268 17.7083H14.576M2.29102 5.20833C2.29102 4.43478 2.59831 3.69292 3.14529 3.14594C3.69227 2.59895 4.43413 2.29166 5.20768 2.29166H14.791C15.5646 2.29166 16.3064 2.59895 16.8534 3.14594C17.4004 3.69292 17.7077 4.43478 17.7077 5.20833V11.9008C17.7077 12.6744 17.4004 13.4162 16.8534 13.9632C16.3064 14.5102 15.5646 14.8175 14.791 14.8175H5.20768C4.43413 14.8175 3.69227 14.5102 3.14529 13.9632C2.59831 13.4162 2.29102 12.6744 2.29102 11.9008V5.20833Z" stroke="#B2B2B2" stroke-width="1.5" stroke-linecap="round" stroke-linejoin="round"/>
</svg>
