<svg width="20" height="20" viewBox="0 0 20 20" fill="none" xmlns="http://www.w3.org/2000/svg">
<path d="M8.33268 5H11.666C11.666 4.55797 11.4904 4.13405 11.1779 3.82149C10.8653 3.50893 10.4414 3.33333 9.99935 3.33333C9.55732 3.33333 9.1334 3.50893 8.82084 3.82149C8.50828 4.13405 8.33268 4.55797 8.33268 5ZM6.66602 5C6.66602 4.11595 7.01721 3.2681 7.64233 2.64298C8.26745 2.01786 9.11529 1.66667 9.99935 1.66667C10.8834 1.66667 11.7313 2.01786 12.3564 2.64298C12.9815 3.2681 13.3327 4.11595 13.3327 5H17.4993C17.7204 5 17.9323 5.0878 18.0886 5.24408C18.2449 5.40036 18.3327 5.61232 18.3327 5.83333C18.3327 6.05435 18.2449 6.26631 18.0886 6.42259C17.9323 6.57887 17.7204 6.66667 17.4993 6.66667H16.7643L16.026 15.2833C15.955 16.1154 15.5743 16.8905 14.9592 17.4553C14.3441 18.0201 13.5394 18.3334 12.7043 18.3333H7.29435C6.45927 18.3334 5.65458 18.0201 5.03947 17.4553C4.42437 16.8905 4.04366 16.1154 3.97268 15.2833L3.23435 6.66667H2.49935C2.27834 6.66667 2.06637 6.57887 1.91009 6.42259C1.75381 6.26631 1.66602 6.05435 1.66602 5.83333C1.66602 5.61232 1.75381 5.40036 1.91009 5.24408C2.06637 5.0878 2.27834 5 2.49935 5H6.66602ZM12.4993 10C12.4993 9.77899 12.4116 9.56703 12.2553 9.41075C12.099 9.25447 11.887 9.16667 11.666 9.16667C11.445 9.16667 11.233 9.25447 11.0768 9.41075C10.9205 9.56703 10.8327 9.77899 10.8327 10V13.3333C10.8327 13.5543 10.9205 13.7663 11.0768 13.9226C11.233 14.0789 11.445 14.1667 11.666 14.1667C11.887 14.1667 12.099 14.0789 12.2553 13.9226C12.4116 13.7663 12.4993 13.5543 12.4993 13.3333V10ZM8.33268 9.16667C8.5537 9.16667 8.76566 9.25447 8.92194 9.41075C9.07822 9.56703 9.16602 9.77899 9.16602 10V13.3333C9.16602 13.5543 9.07822 13.7663 8.92194 13.9226C8.76566 14.0789 8.5537 14.1667 8.33268 14.1667C8.11167 14.1667 7.89971 14.0789 7.74343 13.9226C7.58715 13.7663 7.49935 13.5543 7.49935 13.3333V10C7.49935 9.77899 7.58715 9.56703 7.74343 9.41075C7.89971 9.25447 8.11167 9.16667 8.33268 9.16667ZM5.63268 15.1417C5.66819 15.5578 5.85866 15.9455 6.16639 16.2279C6.47411 16.5103 6.87667 16.6669 7.29435 16.6667H12.7043C13.1217 16.6665 13.5239 16.5097 13.8313 16.2274C14.1386 15.945 14.3289 15.5576 14.3644 15.1417L15.091 6.66667H4.90768L5.63268 15.1417Z" fill="#DDDDDD"/>
</svg>
