<svg width="15" height="15" viewBox="0 0 15 15" fill="none" xmlns="http://www.w3.org/2000/svg">
<path fill-rule="evenodd" clip-rule="evenodd" d="M7.5 13.75C10.9519 13.75 13.75 10.9519 13.75 7.5C13.75 4.04813 10.9519 1.25 7.5 1.25C4.04813 1.25 1.25 4.04813 1.25 7.5C1.25 10.9519 4.04813 13.75 7.5 13.75ZM4.43375 11.45L11.45 4.43375C12.1978 5.39573 12.5687 6.59768 12.4928 7.81379C12.4169 9.02989 11.8996 10.1764 11.038 11.038C10.1764 11.8996 9.02989 12.4169 7.81379 12.4928C6.59768 12.5687 5.39573 12.1978 4.43375 11.45ZM3.55 10.5662C2.80217 9.60427 2.43135 8.40232 2.50721 7.18621C2.58307 5.97011 3.10039 4.82356 3.96198 3.96198C4.82356 3.10039 5.97011 2.58307 7.18621 2.50721C8.40232 2.43135 9.60427 2.80217 10.5662 3.55L3.55 10.5662Z" fill="#EE6F3D"/>
</svg>
