<svg width="20" height="14" viewBox="0 0 20 14" fill="none" xmlns="http://www.w3.org/2000/svg">
<path d="M17.9668 0.200012C17.6574 0.200012 17.3607 0.322929 17.1419 0.541721C16.9231 0.760514 16.8002 1.05726 16.8002 1.36668V6.03335C16.8002 6.34276 16.6773 6.63951 16.4585 6.8583C16.2397 7.0771 15.9429 7.20001 15.6335 7.20001H4.44517L5.96184 5.69501C6.18153 5.47532 6.30495 5.17736 6.30495 4.86668C6.30495 4.55599 6.18153 4.25803 5.96184 4.03835C5.74215 3.81866 5.44419 3.69524 5.13351 3.69524C4.82282 3.69524 4.52486 3.81866 4.30517 4.03835L0.805172 7.53835C0.698958 7.6493 0.615699 7.78014 0.560172 7.92335C0.443484 8.20738 0.443484 8.52597 0.560172 8.81001C0.615699 8.95322 0.698958 9.08406 0.805172 9.19501L4.30517 12.695C4.41363 12.8044 4.54266 12.8912 4.68483 12.9504C4.827 13.0096 4.97949 13.0401 5.13351 13.0401C5.28752 13.0401 5.44001 13.0096 5.58218 12.9504C5.72435 12.8912 5.85338 12.8044 5.96184 12.695C6.07119 12.5866 6.15798 12.4575 6.21721 12.3154C6.27644 12.1732 6.30694 12.0207 6.30694 11.8667C6.30694 11.7127 6.27644 11.5602 6.21721 11.418C6.15798 11.2758 6.07119 11.1468 5.96184 11.0383L4.44517 9.53335H15.6335C16.5618 9.53335 17.452 9.1646 18.1084 8.50822C18.7648 7.85184 19.1335 6.9616 19.1335 6.03335V1.36668C19.1335 1.05726 19.0106 0.760514 18.7918 0.541721C18.573 0.322929 18.2763 0.200012 17.9668 0.200012Z" fill="#B2B2B2"/>
</svg>
