<svg width="43" height="43" viewBox="0 0 43 43" fill="none" xmlns="http://www.w3.org/2000/svg">
<path d="M35.6624 33.628C38.5397 33.628 39.9783 33.628 40.8717 32.7326C41.767 31.8393 41.767 30.4006 41.767 27.5233C41.767 24.646 41.767 23.2073 40.8717 22.314C39.9804 21.4187 38.5417 21.4187 35.6624 21.4187M7.17399 33.628C4.29666 33.628 2.858 33.628 1.96468 32.7326C1.06934 31.8413 1.06934 30.4027 1.06934 27.5233C1.06934 24.644 1.06934 23.2073 1.96468 22.314C2.85596 21.4187 4.29463 21.4187 7.17399 21.4187M21.4182 7.17448C22.2277 7.17448 23.0041 6.85289 23.5765 6.28047C24.1489 5.70805 24.4705 4.93168 24.4705 4.12215C24.4705 3.31262 24.1489 2.53625 23.5765 1.96383C23.0041 1.39141 22.2277 1.06982 21.4182 1.06982C20.6086 1.06982 19.8323 1.39141 19.2599 1.96383C18.6874 2.53625 18.3658 3.31262 18.3658 4.12215C18.3658 4.93168 18.6874 5.70805 19.2599 6.28047C19.8323 6.85289 20.6086 7.17448 21.4182 7.17448ZM21.4182 7.17448V13.2791M15.3135 23.4535V25.4884M27.5228 23.4535V25.4884M35.6624 29.5582V25.4884C35.6624 19.7338 35.6624 16.8544 33.8737 15.0678C32.0871 13.2791 29.2077 13.2791 23.4531 13.2791H19.3833C13.6286 13.2791 10.7493 13.2791 8.96265 15.0678C7.17399 16.8544 7.17399 19.7338 7.17399 25.4884V29.5582C7.17399 35.3128 7.17399 38.1922 8.96265 39.9788C10.7493 41.7675 13.6286 41.7675 19.3833 41.7675H23.4531C29.2077 41.7675 32.0871 41.7675 33.8737 39.9788C35.6624 38.1922 35.6624 35.3128 35.6624 29.5582Z" stroke="#DDDDDD" stroke-width="1.5" stroke-linecap="round" stroke-linejoin="round"/>
<path d="M17.3486 32.6106C17.3486 32.6106 18.7059 33.628 21.4184 33.628C24.1309 33.628 25.4882 32.6106 25.4882 32.6106" stroke="#DDDDDD" stroke-width="1.5" stroke-linecap="round" stroke-linejoin="round"/>
</svg>
