<svg width="20" height="20" viewBox="0 0 20 20" fill="none" xmlns="http://www.w3.org/2000/svg">
<path d="M10 10.8333C11.3807 10.8333 12.5 9.71402 12.5 8.33331C12.5 6.9526 11.3807 5.83331 10 5.83331C8.61929 5.83331 7.5 6.9526 7.5 8.33331C7.5 9.71402 8.61929 10.8333 10 10.8333Z" stroke="#747474" stroke-width="2" stroke-linecap="round" stroke-linejoin="round"/>
<path d="M10.0002 1.66666C8.23205 1.66666 6.53636 2.36904 5.28612 3.61928C4.03588 4.86952 3.3335 6.56521 3.3335 8.33332C3.3335 9.90999 3.6685 10.9417 4.5835 12.0833L10.0002 18.3333L15.4168 12.0833C16.3318 10.9417 16.6668 9.90999 16.6668 8.33332C16.6668 6.56521 15.9645 4.86952 14.7142 3.61928C13.464 2.36904 11.7683 1.66666 10.0002 1.66666Z" stroke="#747474" stroke-width="2" stroke-linecap="round" stroke-linejoin="round"/>
</svg>
