<svg width="25" height="27" viewBox="0 0 25 27" fill="none" xmlns="http://www.w3.org/2000/svg">
<path d="M0.411635 1.32704L12.8318 13.507L0.504004 25.7993C0.302318 25.5366 0.145756 25.2422 0.0407358 24.9282C-0.0135786 24.5726 -0.0135786 24.2108 0.0407358 23.8553V2.93711C0.00378799 2.37579 0.133105 1.81447 0.410214 1.32704M18.1821 8.19507L14.1278 12.211L1.85544 0.141872C2.25334 0.00402781 2.67966 -0.0343408 3.09603 0.0310284C3.74973 0.210083 4.37358 0.48577 4.94627 0.845301L16.0533 6.99142C16.7752 7.37938 17.4787 7.78722 18.1821 8.19507ZM14.1292 14.8215L18.1636 18.7835L15.2391 20.412L6.31618 25.3715C5.57722 25.7794 4.83542 26.1688 4.11352 26.6135C3.80462 26.8059 3.45824 26.9301 3.09752 26.9778C2.73679 27.0256 2.37003 26.9959 2.02171 26.8907L14.1292 14.8215ZM24.5883 13.507C24.5986 14.0039 24.4731 14.4942 24.2251 14.925C23.9772 15.3558 23.6163 15.7106 23.1814 15.9513L19.8476 17.8015L15.4608 13.507L19.8661 9.13866C20.9958 9.76819 22.1071 10.3977 23.217 10.9903C23.6596 11.2377 24.0231 11.6054 24.2656 12.0507C24.508 12.4961 24.6208 13.001 24.5883 13.507Z" fill="#DDDDDD"/>
</svg>
