<svg width="125" height="25" viewBox="0 0 125 25" fill="none" xmlns="http://www.w3.org/2000/svg">
<path d="M84.2186 17.5261L87.4999 15.5469L90.7811 17.5521L89.9217 13.8021L92.8124 11.3021L89.0103 10.9636L87.4999 7.42189L85.9895 10.9375L82.1874 11.2761L85.078 13.8021L84.2186 17.5261ZM82.6301 19.7115L83.9217 14.1771L79.627 10.4563L85.2842 9.96668L87.4999 4.74689L89.7155 9.96564L95.3717 10.4552L91.077 14.1761L92.3697 19.7104L87.4999 16.7729L82.6301 19.7115Z" fill="#B2B2B2"/>
<path d="M109.219 17.5261L112.5 15.5469L115.781 17.5521L114.922 13.8021L117.812 11.3021L114.01 10.9636L112.5 7.42189L110.989 10.9375L107.187 11.2761L110.078 13.8021L109.219 17.5261ZM107.63 19.7115L108.922 14.1771L104.627 10.4563L110.284 9.96668L112.5 4.74689L114.715 9.96564L120.372 10.4552L116.077 14.1761L117.37 19.7104L112.5 16.7729L107.63 19.7115Z" fill="#B2B2B2"/>
<path d="M59.2186 17.5261L62.4999 15.5469L65.7811 17.5521L64.9217 13.8021L67.8124 11.3021L64.0103 10.9636L62.4999 7.42189L60.9895 10.9375L57.1874 11.2761L60.078 13.8021L59.2186 17.5261ZM57.6301 19.7115L58.9217 14.1771L54.627 10.4563L60.2842 9.96668L62.4999 4.74689L64.7155 9.96564L70.3717 10.4552L66.077 14.1761L67.3697 19.7104L62.4999 16.7729L57.6301 19.7115Z" fill="#B2B2B2"/>
<path d="M40.7811 17.5521L39.9217 13.8021L42.8124 11.3021L39.0103 10.9636L37.4999 7.42189V15.5469L40.7811 17.5521ZM32.6301 19.7115L33.9217 14.1771L29.627 10.4573L35.2842 9.96564L37.4999 4.74689L39.7155 9.96564L45.3717 10.4573L41.077 14.1761L42.3697 19.7115L37.4999 16.7729L32.6301 19.7115Z" fill="#B2B2B2"/>
<path d="M7.63008 19.7115L8.92174 14.1771L4.62695 10.4563L10.2842 9.96668L12.4999 4.74689L14.7155 9.96564L20.3717 10.4552L16.077 14.1761L17.3697 19.7104L12.4999 16.7729L7.63008 19.7115Z" fill="#B2B2B2"/>
</svg>
