<svg width="19" height="20" viewBox="0 0 19 20" fill="none" xmlns="http://www.w3.org/2000/svg">
<path d="M8.25143 5.96571C8.41214 5.80519 8.63 5.71503 8.85714 5.71503C9.08429 5.71503 9.30214 5.80519 9.46286 5.96571L12.8914 9.39428C13.0519 9.555 13.1421 9.77285 13.1421 9.99999C13.1421 10.2271 13.0519 10.445 12.8914 10.6057L9.46286 14.0343C9.38439 14.1185 9.28976 14.186 9.18462 14.2329C9.07947 14.2797 8.96597 14.3049 8.85088 14.307C8.73579 14.309 8.62148 14.2878 8.51475 14.2447C8.40802 14.2016 8.31106 14.1374 8.22967 14.056C8.14828 13.9746 8.08411 13.8777 8.041 13.771C7.99789 13.6642 7.97672 13.5499 7.97875 13.4348C7.98078 13.3197 8.00597 13.2062 8.05282 13.1011C8.09967 12.996 8.16722 12.9013 8.25143 12.8229L10.2171 10.8571H0.857143C0.629814 10.8571 0.411797 10.7668 0.251051 10.6061C0.0903058 10.4453 0 10.2273 0 9.99999C0 9.77267 0.0903058 9.55465 0.251051 9.3939C0.411797 9.23316 0.629814 9.14285 0.857143 9.14285H10.2171L8.25143 7.17714C8.09091 7.01642 8.00075 6.79857 8.00075 6.57142C8.00075 6.34428 8.09091 6.12642 8.25143 5.96571Z" fill="#B2B2B2"/>
<path d="M9.73597 0H12.552C13.4811 0 14.2308 -2.12874e-08 14.8377 0.0491428C15.4617 0.100571 16.0103 0.209143 16.5177 0.467429C17.3246 0.87814 17.9808 1.53387 18.392 2.34057C18.6503 2.848 18.7577 3.39657 18.8091 4.02057C18.8583 4.62743 18.8583 5.37714 18.8583 6.30629V13.6937C18.8583 14.6229 18.8583 15.3726 18.8091 15.9794C18.7577 16.6034 18.6491 17.152 18.3908 17.6594C17.9801 18.4664 17.3244 19.1225 16.5177 19.5337C16.0103 19.792 15.4617 19.8994 14.8377 19.9509C14.2308 20 13.4811 20 12.552 20H9.73597C8.80683 20 8.05712 20 7.45026 19.9509C6.82626 19.8994 6.27769 19.7909 5.77026 19.5326C4.96331 19.1219 4.30718 18.4661 3.89597 17.6594C3.63769 17.152 3.53026 16.6034 3.47883 15.9794C3.42969 15.3726 3.42969 14.6229 3.42969 13.6937V13.4286C3.42969 13.2012 3.51999 12.9832 3.68074 12.8225C3.84148 12.6617 4.0595 12.5714 4.28683 12.5714C4.51416 12.5714 4.73218 12.6617 4.89292 12.8225C5.05367 12.9832 5.14397 13.2012 5.14397 13.4286V13.6571C5.14397 14.6309 5.14397 15.3109 5.1874 15.84C5.22969 16.3577 5.30969 16.656 5.42397 16.8823C5.67083 17.3657 6.06397 17.7589 6.54854 18.0057C6.77369 18.12 7.07197 18.2 7.59083 18.2423C8.11883 18.2846 8.79769 18.2857 9.77255 18.2857H12.5154C13.4903 18.2857 14.1691 18.2857 14.6983 18.2423C15.216 18.1989 15.5143 18.12 15.7405 18.0057C16.2242 17.7592 16.6175 17.366 16.864 16.8823C16.9783 16.656 17.0583 16.3577 17.1005 15.8389C17.1428 15.3109 17.144 14.6309 17.144 13.6571V6.34286C17.144 5.36914 17.144 4.68914 17.1005 4.16C17.0571 3.64229 16.9783 3.344 16.864 3.11886C16.6177 2.63476 16.2244 2.24109 15.7405 1.99429C15.5143 1.88 15.216 1.8 14.6971 1.75771C14.1691 1.71543 13.4891 1.71429 12.5154 1.71429H9.77255C8.79769 1.71429 8.11883 1.71429 7.58969 1.75771C7.07197 1.8 6.77369 1.88 6.54854 1.99429C6.06427 2.24089 5.67058 2.63458 5.42397 3.11886C5.30969 3.344 5.22969 3.64229 5.1874 4.16114C5.14512 4.68914 5.14397 5.36914 5.14397 6.34286V6.57143C5.14397 6.79876 5.05367 7.01677 4.89292 7.17752C4.73218 7.33827 4.51416 7.42857 4.28683 7.42857C4.0595 7.42857 3.84148 7.33827 3.68074 7.17752C3.51999 7.01677 3.42969 6.79876 3.42969 6.57143V6.30629C3.42969 5.37714 3.42969 4.62743 3.47883 4.02057C3.53026 3.39657 3.63883 2.848 3.89712 2.34057C4.30783 1.53362 4.96356 0.877489 5.77026 0.466286C6.27769 0.208 6.82626 0.100571 7.45026 0.0491428C8.05712 -2.12874e-08 8.80683 0 9.73597 0Z" fill="#B2B2B2"/>
</svg>
