<svg width="30" height="30" viewBox="0 0 30 30" fill="none" xmlns="http://www.w3.org/2000/svg">
<path d="M15 22.1875C13.5784 22.1875 12.1888 21.766 11.0068 20.9762C9.82486 20.1864 8.90362 19.0639 8.35962 17.7505C7.81561 16.4372 7.67327 14.992 7.95061 13.5978C8.22794 12.2036 8.91248 10.9229 9.91767 9.91767C10.9229 8.91248 12.2036 8.22794 13.5978 7.95061C14.992 7.67327 16.4372 7.81561 17.7505 8.35962C19.0639 8.90362 20.1864 9.82486 20.9762 11.0068C21.766 12.1888 22.1875 13.5784 22.1875 15C22.1842 16.9052 21.4259 18.7315 20.0787 20.0787C18.7315 21.4259 16.9052 22.1842 15 22.1875ZM15 9.6875C13.9493 9.6875 12.9222 9.99907 12.0485 10.5828C11.1749 11.1666 10.494 11.9963 10.0919 12.967C9.6898 13.9377 9.58459 15.0059 9.78958 16.0364C9.99456 17.0669 10.5005 18.0135 11.2435 18.7565C11.9865 19.4995 12.9331 20.0054 13.9636 20.2104C14.9941 20.4154 16.0623 20.3102 17.033 19.9081C18.0037 19.506 18.8334 18.8251 19.4172 17.9515C20.0009 17.0778 20.3125 16.0507 20.3125 15C20.3092 13.5921 19.7484 12.2427 18.7529 11.2471C17.7573 10.2516 16.4079 9.6908 15 9.6875ZM15 6.25C14.7524 6.24676 14.5158 6.14695 14.3407 5.97183C14.1655 5.79671 14.0657 5.56013 14.0625 5.3125V3.4375C14.0625 3.18886 14.1613 2.9504 14.3371 2.77459C14.5129 2.59877 14.7514 2.5 15 2.5C15.2486 2.5 15.4871 2.59877 15.6629 2.77459C15.8387 2.9504 15.9375 3.18886 15.9375 3.4375V5.3125C15.9343 5.56013 15.8345 5.79671 15.6593 5.97183C15.4842 6.14695 15.2476 6.24676 15 6.25ZM15 27.5C14.7524 27.4968 14.5158 27.397 14.3407 27.2218C14.1655 27.0467 14.0657 26.8101 14.0625 26.5625V24.6875C14.0625 24.4389 14.1613 24.2004 14.3371 24.0246C14.5129 23.8488 14.7514 23.75 15 23.75C15.2486 23.75 15.4871 23.8488 15.6629 24.0246C15.8387 24.2004 15.9375 24.4389 15.9375 24.6875V26.5625C15.9343 26.8101 15.8345 27.0467 15.6593 27.2218C15.4842 27.397 15.2476 27.4968 15 27.5ZM26.5625 15.9375H24.6875C24.4389 15.9375 24.2004 15.8387 24.0246 15.6629C23.8488 15.4871 23.75 15.2486 23.75 15C23.75 14.7514 23.8488 14.5129 24.0246 14.3371C24.2004 14.1613 24.4389 14.0625 24.6875 14.0625H26.5625C26.8111 14.0625 27.0496 14.1613 27.2254 14.3371C27.4012 14.5129 27.5 14.7514 27.5 15C27.5 15.2486 27.4012 15.4871 27.2254 15.6629C27.0496 15.8387 26.8111 15.9375 26.5625 15.9375ZM5.3125 15.9375H3.4375C3.18886 15.9375 2.9504 15.8387 2.77459 15.6629C2.59877 15.4871 2.5 15.2486 2.5 15C2.5 14.7514 2.59877 14.5129 2.77459 14.3371C2.9504 14.1613 3.18886 14.0625 3.4375 14.0625H5.3125C5.56114 14.0625 5.7996 14.1613 5.97541 14.3371C6.15123 14.5129 6.25 14.7514 6.25 15C6.25 15.2486 6.15123 15.4871 5.97541 15.6629C5.7996 15.8387 5.56114 15.9375 5.3125 15.9375ZM8.125 9.0625C7.88382 9.04406 7.65946 8.93188 7.5 8.75L6.1375 7.5C6.04804 7.41054 5.97707 7.30433 5.92865 7.18744C5.88024 7.07055 5.85532 6.94527 5.85532 6.81875C5.85532 6.69223 5.88024 6.56695 5.92865 6.45006C5.97707 6.33317 6.04804 6.22696 6.1375 6.1375C6.22696 6.04804 6.33317 5.97707 6.45006 5.92865C6.56695 5.88024 6.69223 5.85532 6.81875 5.85532C6.94527 5.85532 7.07055 5.88024 7.18744 5.92865C7.30433 5.97707 7.41054 6.04804 7.5 6.1375L8.75 7.5C8.90374 7.67188 8.98873 7.8944 8.98873 8.125C8.98873 8.3556 8.90374 8.57812 8.75 8.75C8.59054 8.93188 8.36618 9.04406 8.125 9.0625ZM23.2 24.1375C23.0768 24.1381 22.9548 24.1141 22.841 24.0668C22.7272 24.0196 22.6241 23.9501 22.5375 23.8625L21.25 22.5C21.1664 22.3251 21.1392 22.1285 21.172 21.9374C21.2048 21.7464 21.296 21.5701 21.4331 21.4331C21.5701 21.296 21.7464 21.2048 21.9374 21.172C22.1285 21.1392 22.3251 21.1664 22.5 21.25L23.8625 22.5C24.0381 22.6758 24.1367 22.9141 24.1367 23.1625C24.1367 23.4109 24.0381 23.6492 23.8625 23.825C23.7792 23.9195 23.6774 23.9959 23.5635 24.0496C23.4496 24.1034 23.3259 24.1333 23.2 24.1375ZM21.875 9.0625C21.6338 9.04406 21.4095 8.93188 21.25 8.75C21.0963 8.57812 21.0113 8.3556 21.0113 8.125C21.0113 7.8944 21.0963 7.67188 21.25 7.5L22.5 6.1375C22.6807 5.95682 22.9257 5.85532 23.1812 5.85532C23.4368 5.85532 23.6818 5.95682 23.8625 6.1375C24.0432 6.31818 24.1447 6.56323 24.1447 6.81875C24.1447 7.07427 24.0432 7.31932 23.8625 7.5L22.5 8.75C22.3405 8.93188 22.1162 9.04406 21.875 9.0625ZM6.8 24.1375C6.67682 24.1381 6.55477 24.1141 6.44101 24.0668C6.32724 24.0196 6.22406 23.9501 6.1375 23.8625C5.96194 23.6867 5.86333 23.4484 5.86333 23.2C5.86333 22.9516 5.96194 22.7133 6.1375 22.5375L7.5 21.25C7.67494 21.1664 7.87148 21.1392 8.06256 21.172C8.25364 21.2048 8.42985 21.296 8.56694 21.4331C8.70403 21.5701 8.79524 21.7464 8.82803 21.9374C8.86081 22.1285 8.83355 22.3251 8.75 22.5L7.5 23.8625C7.40909 23.9548 7.2998 24.027 7.17921 24.0744C7.05862 24.1217 6.92943 24.1432 6.8 24.1375Z" fill="#B2B2B2"/>
</svg>
