<svg width="20" height="20" viewBox="0 0 20 20" fill="none" xmlns="http://www.w3.org/2000/svg">
<path d="M10.0004 15.8333C10.2045 15.8334 10.4015 15.9083 10.554 16.0439C10.7066 16.1796 10.804 16.3665 10.8279 16.5692L10.8337 16.6667V17.5C10.8335 17.7124 10.7521 17.9167 10.6063 18.0711C10.4605 18.2256 10.2613 18.3185 10.0492 18.331C9.83718 18.3434 9.6284 18.2744 9.46552 18.1381C9.30264 18.0018 9.19796 17.8084 9.17288 17.5975L9.16705 17.5V16.6667C9.16705 16.4457 9.25484 16.2337 9.41112 16.0774C9.5674 15.9211 9.77936 15.8333 10.0004 15.8333ZM15.2612 14.0917L15.3395 14.1608L15.9229 14.7442C16.0723 14.8941 16.1591 15.0954 16.1656 15.307C16.172 15.5186 16.0977 15.7248 15.9577 15.8836C15.8176 16.0424 15.6224 16.1419 15.4116 16.162C15.2009 16.1821 14.9904 16.1212 14.8229 15.9917L14.7445 15.9225L14.1612 15.3392C14.0174 15.1956 13.931 15.0045 13.9183 14.8017C13.9055 14.5989 13.9673 14.3984 14.092 14.238C14.2167 14.0776 14.3957 13.9682 14.5954 13.9305C14.7951 13.8928 15.0016 13.9294 15.1762 14.0333L15.2612 14.0917ZM5.83955 14.1608C5.98303 14.3043 6.06922 14.4952 6.08195 14.6978C6.09469 14.9003 6.03309 15.1005 5.90871 15.2608L5.83955 15.3392L5.25621 15.9225C5.10625 16.072 4.90502 16.1587 4.69339 16.1652C4.48177 16.1717 4.27562 16.0973 4.11681 15.9573C3.95801 15.8173 3.85846 15.622 3.83838 15.4113C3.8183 15.2005 3.8792 14.99 4.00871 14.8225L4.07788 14.7442L4.66121 14.1608C4.81749 14.0046 5.02941 13.9169 5.25038 13.9169C5.47135 13.9169 5.68327 14.0046 5.83955 14.1608ZM3.33371 9.16667C3.54611 9.16691 3.75041 9.24824 3.90485 9.39404C4.0593 9.53985 4.15224 9.73913 4.16469 9.95117C4.17714 10.1632 4.10815 10.372 3.97182 10.5349C3.8355 10.6977 3.64213 10.8024 3.43121 10.8275L3.33371 10.8333H2.50038C2.28798 10.8331 2.08369 10.7518 1.92924 10.606C1.77479 10.4602 1.68185 10.2609 1.6694 10.0488C1.65695 9.83681 1.72594 9.62802 1.86227 9.46514C1.99859 9.30227 2.19197 9.19759 2.40288 9.1725L2.50038 9.16667H3.33371ZM17.5004 9.16667C17.7128 9.16691 17.9171 9.24824 18.0715 9.39404C18.226 9.53985 18.3189 9.73913 18.3314 9.95117C18.3438 10.1632 18.2748 10.372 18.1385 10.5349C18.0022 10.6977 17.8088 10.8024 17.5979 10.8275L17.5004 10.8333H16.667C16.4546 10.8331 16.2504 10.7518 16.0959 10.606C15.9415 10.4602 15.8485 10.2609 15.8361 10.0488C15.8236 9.83681 15.8926 9.62802 16.0289 9.46514C16.1653 9.30227 16.3586 9.19759 16.5695 9.1725L16.667 9.16667H17.5004ZM5.17788 4.00834L5.25621 4.07751L5.83955 4.66084C5.989 4.8108 6.07577 5.01203 6.08224 5.22366C6.0887 5.43528 6.01437 5.64143 5.87434 5.80024C5.73431 5.95904 5.53909 6.05859 5.32832 6.07867C5.11755 6.09875 4.90704 6.03785 4.73955 5.90834L4.66121 5.83917L4.07788 5.25584C3.93462 5.11224 3.84866 4.92132 3.8361 4.71886C3.82355 4.51641 3.88526 4.31633 4.00968 4.15613C4.1341 3.99593 4.31268 3.88661 4.51194 3.84866C4.71119 3.81072 4.91745 3.84675 5.09205 3.95L5.17788 4.00834ZM15.9229 4.07751C16.0664 4.221 16.1526 4.41192 16.1653 4.61444C16.178 4.81696 16.1164 5.01717 15.992 5.1775L15.9229 5.25584L15.3395 5.83917C15.1896 5.98863 14.9883 6.0754 14.7767 6.08186C14.5651 6.08832 14.3589 6.01399 14.2001 5.87396C14.0413 5.73394 13.9418 5.53871 13.9217 5.32794C13.9016 5.11717 13.9625 4.90666 14.092 4.73917L14.1612 4.66084L14.7445 4.07751C14.9008 3.92128 15.1127 3.83352 15.3337 3.83352C15.5547 3.83352 15.7666 3.92128 15.9229 4.07751ZM10.0004 1.66667C10.2045 1.6667 10.4015 1.74164 10.554 1.87727C10.7066 2.0129 10.804 2.1998 10.8279 2.4025L10.8337 2.50001V3.33334C10.8335 3.54574 10.7521 3.75003 10.6063 3.90448C10.4605 4.05893 10.2613 4.15187 10.0492 4.16431C9.83718 4.17676 9.6284 4.10778 9.46552 3.97145C9.30264 3.83513 9.19796 3.64175 9.17288 3.43084L9.16705 3.33334V2.50001C9.16705 2.27899 9.25484 2.06703 9.41112 1.91075C9.5674 1.75447 9.77936 1.66667 10.0004 1.66667ZM10.0004 5.83334C10.8168 5.83329 11.6152 6.07308 12.2965 6.52292C12.9778 6.97276 13.5119 7.61283 13.8325 8.36364C14.1531 9.11444 14.2461 9.94289 14.0999 10.7461C13.9538 11.5493 13.5748 12.2919 13.0102 12.8816C12.4456 13.4712 11.7202 13.8821 10.9242 14.063C10.1281 14.244 9.29635 14.1871 8.53232 13.8994C7.7683 13.6117 7.10562 13.1059 6.62659 12.4448C6.14757 11.7837 5.87331 10.9965 5.83788 10.1808L5.83371 10L5.83788 9.81917C5.88448 8.74646 6.34338 7.73315 7.1189 6.99055C7.89441 6.24796 8.92666 5.8334 10.0004 5.83334Z" fill="#B2B2B2"/>
</svg>
