<svg width="30" height="30" viewBox="0 0 30 30" fill="none" xmlns="http://www.w3.org/2000/svg">
<path d="M23.8633 18.0513V23.6013C23.8629 24.3865 23.5508 25.1395 22.9956 25.6948C22.4403 26.2501 21.6873 26.5622 20.902 26.5625H6.40076C6.01045 26.5623 5.62402 26.4851 5.26367 26.3351C4.90333 26.1851 4.57617 25.9654 4.30099 25.6886C4.02582 25.4118 3.80806 25.0834 3.66021 24.7222C3.51237 24.3609 3.43736 23.9741 3.43951 23.5838V9.09875C3.43718 8.70906 3.51222 8.32279 3.66028 7.96231C3.80834 7.60183 4.02647 7.27433 4.30202 6.99877C4.57758 6.72321 4.90509 6.50509 5.26556 6.35703C5.62604 6.20897 6.01232 6.13393 6.40201 6.13625H11.9508" stroke="#888888" stroke-width="1.5" stroke-linecap="round" stroke-linejoin="round"/>
<path d="M23.8637 11.2438L18.7574 6.13625M8.54492 19.7538V17.0475C8.54742 16.6013 8.72492 16.1725 9.03867 15.8563L20.9537 3.94125C21.1118 3.78138 21.3 3.65447 21.5075 3.56785C21.715 3.48123 21.9376 3.43663 22.1624 3.43663C22.3873 3.43663 22.6099 3.48123 22.8174 3.56785C23.0248 3.65447 23.2131 3.78138 23.3712 3.94125L26.0599 6.63C26.2198 6.7881 26.3467 6.97634 26.4333 7.18382C26.5199 7.39131 26.5646 7.61391 26.5646 7.83875C26.5646 8.06359 26.5199 8.2862 26.4333 8.49368C26.3467 8.70116 26.2198 8.8894 26.0599 9.0475L14.1449 20.9625C13.8281 21.2771 13.4002 21.4545 12.9537 21.4563H10.2474C10.0238 21.4566 9.80222 21.4128 9.59552 21.3273C9.38881 21.2419 9.201 21.1165 9.04284 20.9583C8.88468 20.8002 8.75929 20.6124 8.67385 20.4057C8.58841 20.199 8.54459 19.9774 8.54492 19.7538Z" stroke="#888888" stroke-width="1.5" stroke-linecap="round" stroke-linejoin="round"/>
</svg>
